G04 Layer: TopSolderMaskLayer*
G04 EasyEDA v6.4.7, 2021-01-11T10:17:57+08:00*
G04 90706c7a1cc54bb094bce230ef5c70c2,119f753a6ce64b8d841f2ad33262ab0c,10*
G04 Gerber Generator version 0.2*
G04 Scale: 100 percent, Rotated: No, Reflected: No *
G04 Dimensions in millimeters *
G04 leading zeros omitted , absolute positions ,3 integer and 3 decimal *
%FSLAX33Y33*%
%MOMM*%
G90*
D02*

%ADD28C,4.703191*%
%ADD29C,2.203196*%
%ADD30C,1.703197*%
%ADD31C,2.503195*%
%ADD32C,2.003196*%
%ADD34C,1.804010*%
%ADD35C,1.803197*%
%ADD36C,1.727200*%
%ADD37C,3.203194*%

%LPD*%
G54D28*
G01X4132Y61976D02*
G01X19632Y61976D01*
G01X30421Y61976D02*
G01X45921Y61976D01*
G01X56583Y61976D02*
G01X72083Y61976D01*
G01X57726Y3302D02*
G01X73226Y3302D01*
G01X11244Y3302D02*
G01X26744Y3302D01*
G01X34739Y3302D02*
G01X50239Y3302D01*
G54D29*
G01X31059Y23368D03*
G01X28519Y23368D03*
G01X41219Y23368D03*
G01X36139Y23368D03*
G01X38679Y23368D03*
G01X33599Y23368D03*
G54D30*
G01X39377Y52086D03*
G01X39377Y54086D03*
G01X41379Y52085D03*
G01X41379Y54085D03*
G01X43379Y52085D03*
G01X43379Y54085D03*
G01X45377Y52086D03*
G01X45377Y54086D03*
G01X47379Y52085D03*
G01X47379Y54085D03*
G54D31*
G01X39980Y43178D03*
G01X33980Y45728D03*
G01X27980Y43178D03*
G01X27980Y30979D03*
G01X39980Y30979D03*
G54D32*
G01X46934Y45933D03*
G01X46934Y40933D03*
G54D30*
G01X51785Y36068D03*
G36*
G01X46057Y35217D02*
G01X46057Y36918D01*
G01X47759Y36918D01*
G01X47759Y35217D01*
G01X46057Y35217D01*
G37*
G54D34*
G01X64968Y54609D03*
G54D35*
G01X57348Y54609D03*
G01X57348Y52069D03*
G01X57348Y49529D03*
G01X57348Y46989D03*
G01X57348Y44449D03*
G01X57348Y41909D03*
G01X57348Y39369D03*
G01X57348Y36829D03*
G01X57348Y34289D03*
G01X57348Y31749D03*
G01X57348Y29209D03*
G01X57348Y26669D03*
G01X57348Y24129D03*
G01X57348Y21589D03*
G01X64968Y21589D03*
G01X64968Y24129D03*
G01X64968Y26669D03*
G01X64968Y29209D03*
G01X64968Y31749D03*
G01X64968Y34289D03*
G01X64968Y36829D03*
G01X64968Y39369D03*
G54D34*
G01X64968Y41909D03*
G54D35*
G01X64968Y44449D03*
G01X64968Y46989D03*
G01X64968Y49529D03*
G01X64968Y52069D03*
G01X49347Y29337D03*
G01X49347Y24257D03*
G54D36*
G01X13406Y52070D03*
G01X15946Y52070D03*
G01X18486Y52070D03*
G01X21026Y52070D03*
G01X13406Y46355D03*
G01X15946Y46355D03*
G01X18486Y46355D03*
G01X21026Y46355D03*
G01X13406Y40640D03*
G01X15946Y40640D03*
G01X18486Y40640D03*
G01X21026Y40640D03*
G01X13406Y34925D03*
G01X15946Y34925D03*
G01X18486Y34925D03*
G01X21026Y34925D03*
G54D32*
G01X51760Y45933D03*
G01X51760Y40933D03*
G54D37*
G01X58659Y15334D03*
G01X54459Y15334D03*
G01X50259Y15334D03*
G01X46059Y15334D03*
G01X41859Y15334D03*
G01X37659Y15334D03*
G01X12459Y11135D03*
G01X16659Y11135D03*
G01X20859Y11135D03*
G01X12459Y15334D03*
G01X16659Y15334D03*
G01X20859Y15334D03*
G01X25059Y15334D03*
G01X29259Y15334D03*
G01X33459Y15334D03*
G01X25059Y11135D03*
G01X29259Y11135D03*
G01X33459Y11135D03*
G01X37659Y11135D03*
G01X41859Y11135D03*
G01X46059Y11135D03*
G01X50259Y11135D03*
G01X54459Y11135D03*
G01X58659Y11135D03*
G54D32*
G01X32532Y50835D03*
G01X32532Y55336D03*
G01X26029Y50835D03*
G01X26029Y55336D03*
G54D36*
G01X13406Y23495D03*
G01X15946Y23495D03*
G01X18486Y23495D03*
G01X21026Y23495D03*
G01X13406Y29210D03*
G01X15946Y29210D03*
G01X18486Y29210D03*
G01X21026Y29210D03*
G01X74155Y10795D03*
G01X63655Y10795D03*
G01X74155Y7747D03*
G01X63655Y7747D03*
G01X66365Y15494D03*
G36*
G01X62961Y14630D02*
G01X62961Y16357D01*
G01X64688Y16357D01*
G01X64688Y14630D01*
G01X62961Y14630D01*
G37*
G01X72715Y15494D03*
G36*
G01X69311Y14630D02*
G01X69311Y16357D01*
G01X71038Y16357D01*
G01X71038Y14630D01*
G01X69311Y14630D01*
G37*
M00*
M02*
