G04 Layer: TopSilkLayer*
G04 EasyEDA v6.4.7, 2021-01-07T14:22:33+08:00*
G04 e544819f4ad94c36a5ee21bd65f75882,119f753a6ce64b8d841f2ad33262ab0c,10*
G04 Gerber Generator version 0.2*
G04 Scale: 100 percent, Rotated: No, Reflected: No *
G04 Dimensions in millimeters *
G04 leading zeros omitted , absolute positions ,3 integer and 3 decimal *
%FSLAX33Y33*%
%MOMM*%
G90*
D02*

%ADD23C,0.250012*%
%ADD24C,0.254000*%
%ADD25C,0.203200*%

%LPD*%

%LPD*%
G36*
G01X31252Y57299D02*
G01X31165Y57309D01*
G01X31141Y57285D01*
G01X31131Y57265D01*
G01X31124Y57229D01*
G01X31119Y57182D01*
G01X31117Y57128D01*
G01X31117Y56995D01*
G01X31338Y57016D01*
G01X31338Y57289D01*
G01X31252Y57299D01*
G37*

%LPD*%
G36*
G01X31357Y56727D02*
G01X31117Y56727D01*
G01X31117Y55632D01*
G01X31338Y55653D01*
G01X31348Y56190D01*
G01X31357Y56727D01*
G37*

%LPD*%
G36*
G01X22938Y57306D02*
G01X22639Y57306D01*
G01X22408Y57151D01*
G01X22365Y57067D01*
G01X22323Y56982D01*
G01X22322Y56870D01*
G01X22322Y56757D01*
G01X22428Y56551D01*
G01X22932Y56315D01*
G01X23002Y56226D01*
G01X23071Y56138D01*
G01X23071Y56008D01*
G01X22904Y55840D01*
G01X22693Y55840D01*
G01X22610Y55924D01*
G01X22526Y56008D01*
G01X22526Y56181D01*
G01X22287Y56181D01*
G01X22287Y55920D01*
G01X22400Y55789D01*
G01X22514Y55658D01*
G01X22926Y55628D01*
G01X23054Y55689D01*
G01X23182Y55749D01*
G01X23310Y55960D01*
G01X23310Y56232D01*
G01X23246Y56338D01*
G01X23181Y56443D01*
G01X22930Y56571D01*
G01X22828Y56624D01*
G01X22736Y56677D01*
G01X22663Y56721D01*
G01X22620Y56752D01*
G01X22560Y56806D01*
G01X22561Y56877D01*
G01X22568Y56942D01*
G01X22593Y56993D01*
G01X22638Y57032D01*
G01X22706Y57065D01*
G01X22799Y57100D01*
G01X22885Y57067D01*
G01X22971Y57035D01*
G01X22991Y56932D01*
G01X23012Y56829D01*
G01X23281Y56829D01*
G01X23257Y56939D01*
G01X23243Y56994D01*
G01X23224Y57044D01*
G01X23202Y57090D01*
G01X23176Y57132D01*
G01X23146Y57170D01*
G01X23112Y57203D01*
G01X23075Y57232D01*
G01X23034Y57257D01*
G01X22938Y57306D01*
G37*

%LPD*%
G36*
G01X32684Y56710D02*
G01X32586Y56761D01*
G01X32439Y56760D01*
G01X32293Y56760D01*
G01X32184Y56694D01*
G01X32076Y56628D01*
G01X32036Y56553D01*
G01X31995Y56478D01*
G01X32072Y56223D01*
G01X32303Y56113D01*
G01X32390Y56113D01*
G01X32431Y56110D01*
G01X32477Y56101D01*
G01X32524Y56088D01*
G01X32565Y56073D01*
G01X32654Y56032D01*
G01X32644Y55945D01*
G01X32634Y55857D01*
G01X32259Y55857D01*
G01X32191Y56011D01*
G01X32003Y56011D01*
G01X32003Y55837D01*
G01X32166Y55674D01*
G01X32291Y55651D01*
G01X32417Y55628D01*
G01X32723Y55662D01*
G01X32889Y55818D01*
G01X32889Y56103D01*
G01X32751Y56227D01*
G01X32525Y56283D01*
G01X32298Y56338D01*
G01X32262Y56398D01*
G01X32224Y56458D01*
G01X32291Y56507D01*
G01X32357Y56556D01*
G01X32582Y56556D01*
G01X32625Y56488D01*
G01X32667Y56420D01*
G01X32889Y56420D01*
G01X32889Y56463D01*
G01X32872Y56525D01*
G01X32826Y56593D01*
G01X32761Y56658D01*
G01X32684Y56710D01*
G37*

%LPD*%
G36*
G01X29367Y59249D02*
G01X26043Y59249D01*
G01X25407Y58098D01*
G01X25397Y58605D01*
G01X25388Y59113D01*
G01X23958Y59113D01*
G01X23958Y57681D01*
G01X24674Y57681D01*
G01X24786Y57680D01*
G01X24887Y57678D01*
G01X24976Y57676D01*
G01X25048Y57674D01*
G01X25104Y57671D01*
G01X25139Y57668D01*
G01X25151Y57664D01*
G01X25147Y57653D01*
G01X25136Y57629D01*
G01X25118Y57593D01*
G01X25095Y57548D01*
G01X25066Y57494D01*
G01X25032Y57432D01*
G01X24995Y57363D01*
G01X24954Y57289D01*
G01X24910Y57210D01*
G01X24865Y57128D01*
G01X24818Y57044D01*
G01X24770Y56960D01*
G01X24722Y56875D01*
G01X24675Y56792D01*
G01X24629Y56712D01*
G01X24585Y56635D01*
G01X24544Y56563D01*
G01X24505Y56497D01*
G01X24470Y56439D01*
G01X24440Y56389D01*
G01X24416Y56348D01*
G01X24397Y56318D01*
G01X24384Y56300D01*
G01X24378Y56295D01*
G01X24379Y56317D01*
G01X24393Y56367D01*
G01X24416Y56436D01*
G01X24448Y56518D01*
G01X24532Y56727D01*
G01X24278Y56727D01*
G01X24164Y56394D01*
G01X24141Y56327D01*
G01X24118Y56261D01*
G01X24096Y56200D01*
G01X24076Y56145D01*
G01X24058Y56096D01*
G01X24043Y56057D01*
G01X24031Y56028D01*
G01X24024Y56012D01*
G01X23997Y55961D01*
G01X23962Y56046D01*
G01X23953Y56068D01*
G01X23940Y56102D01*
G01X23924Y56144D01*
G01X23905Y56193D01*
G01X23885Y56247D01*
G01X23863Y56306D01*
G01X23840Y56367D01*
G01X23818Y56428D01*
G01X23707Y56727D01*
G01X23594Y56727D01*
G01X23550Y56726D01*
G01X23514Y56723D01*
G01X23489Y56720D01*
G01X23480Y56716D01*
G01X23483Y56704D01*
G01X23491Y56680D01*
G01X23503Y56645D01*
G01X23518Y56599D01*
G01X23538Y56545D01*
G01X23559Y56485D01*
G01X23583Y56418D01*
G01X23608Y56349D01*
G01X23662Y56205D01*
G01X23688Y56134D01*
G01X23714Y56065D01*
G01X23738Y56001D01*
G01X23761Y55942D01*
G01X23782Y55890D01*
G01X23799Y55847D01*
G01X23886Y55633D01*
G01X23867Y55583D01*
G01X23848Y55534D01*
G01X23578Y55534D01*
G01X23600Y55312D01*
G01X23726Y55301D01*
G01X23852Y55291D01*
G01X23936Y55346D01*
G01X24019Y55400D01*
G01X24088Y55578D01*
G01X24104Y55618D01*
G01X24122Y55666D01*
G01X24142Y55719D01*
G01X24164Y55775D01*
G01X24208Y55892D01*
G01X24230Y55949D01*
G01X24250Y56002D01*
G01X24343Y56249D01*
G01X24372Y56249D01*
G01X24384Y56246D01*
G01X24393Y56237D01*
G01X24399Y56223D01*
G01X24401Y56207D01*
G01X24414Y56169D01*
G01X24449Y56096D01*
G01X24501Y56001D01*
G01X24565Y55891D01*
G01X24599Y55834D01*
G01X24635Y55772D01*
G01X24674Y55707D01*
G01X24713Y55638D01*
G01X24754Y55567D01*
G01X24795Y55495D01*
G01X24877Y55349D01*
G01X24918Y55277D01*
G01X24957Y55207D01*
G01X24994Y55139D01*
G01X25030Y55075D01*
G01X25062Y55015D01*
G01X25092Y54960D01*
G01X25119Y54910D01*
G01X25141Y54867D01*
G01X25160Y54830D01*
G01X25173Y54803D01*
G01X25182Y54784D01*
G01X25185Y54774D01*
G01X25185Y54751D01*
G01X24546Y54742D01*
G01X23906Y54732D01*
G01X23888Y53250D01*
G01X25354Y53250D01*
G01X25363Y53855D01*
G01X25373Y54460D01*
G01X26048Y53250D01*
G01X29364Y53250D01*
G01X29615Y53701D01*
G01X29685Y53826D01*
G01X29720Y53889D01*
G01X29754Y53950D01*
G01X29787Y54009D01*
G01X29819Y54065D01*
G01X29849Y54118D01*
G01X29876Y54167D01*
G01X29901Y54211D01*
G01X29922Y54249D01*
G01X29955Y54306D01*
G01X30043Y54460D01*
G01X30061Y53959D01*
G01X30065Y53858D01*
G01X30069Y53763D01*
G01X30074Y53677D01*
G01X30079Y53602D01*
G01X30083Y53539D01*
G01X30087Y53491D01*
G01X30091Y53459D01*
G01X30095Y53447D01*
G01X30104Y53446D01*
G01X30124Y53445D01*
G01X30156Y53444D01*
G01X30198Y53444D01*
G01X30249Y53443D01*
G01X30377Y53443D01*
G01X30452Y53444D01*
G01X30532Y53445D01*
G01X30618Y53445D01*
G01X30709Y53447D01*
G01X30802Y53448D01*
G01X31493Y53459D01*
G01X31475Y54869D01*
G01X30271Y54869D01*
G01X30316Y54954D01*
G01X30326Y54971D01*
G01X30340Y54997D01*
G01X30360Y55033D01*
G01X30384Y55076D01*
G01X30412Y55127D01*
G01X30444Y55184D01*
G01X30480Y55247D01*
G01X30517Y55315D01*
G01X30558Y55387D01*
G01X30600Y55462D01*
G01X30644Y55539D01*
G01X30732Y55697D01*
G01X30775Y55773D01*
G01X30815Y55846D01*
G01X30852Y55916D01*
G01X30887Y55981D01*
G01X30918Y56040D01*
G01X30946Y56093D01*
G01X30970Y56139D01*
G01X30989Y56178D01*
G01X31003Y56208D01*
G01X31011Y56228D01*
G01X31014Y56239D01*
G01X31013Y56248D01*
G01X31009Y56261D01*
G01X31002Y56279D01*
G01X30992Y56301D01*
G01X30979Y56328D01*
G01X30964Y56360D01*
G01X30926Y56436D01*
G01X30902Y56481D01*
G01X30876Y56531D01*
G01X30848Y56585D01*
G01X30816Y56643D01*
G01X30783Y56705D01*
G01X30746Y56772D01*
G01X30707Y56843D01*
G01X30665Y56918D01*
G01X30621Y56997D01*
G01X30575Y57080D01*
G01X30526Y57168D01*
G01X30474Y57260D01*
G01X30406Y57382D01*
G01X30350Y57486D01*
G01X30312Y57559D01*
G01X30299Y57591D01*
G01X30299Y57611D01*
G01X30870Y57620D01*
G01X31441Y57630D01*
G01X31459Y59079D01*
G01X30027Y59079D01*
G01X30009Y58097D01*
G01X29367Y59249D01*
G37*

%LPC*%
G36*
G01X27332Y57272D02*
G01X27161Y57272D01*
G01X27179Y55687D01*
G01X27256Y55676D01*
G01X27332Y55665D01*
G01X27332Y56256D01*
G01X27444Y56490D01*
G01X27586Y56590D01*
G01X27806Y56590D01*
G01X27859Y56515D01*
G01X27912Y56439D01*
G01X27912Y55670D01*
G01X28049Y55670D01*
G01X28049Y56585D01*
G01X27869Y56727D01*
G01X27635Y56727D01*
G01X27561Y56688D01*
G01X27525Y56668D01*
G01X27485Y56640D01*
G01X27445Y56610D01*
G01X27409Y56580D01*
G01X27332Y56510D01*
G01X27332Y57272D01*
G37*
G36*
G01X30265Y56675D02*
G01X30166Y56727D01*
G01X30036Y56724D01*
G01X29934Y56718D01*
G01X29858Y56701D01*
G01X29794Y56668D01*
G01X29728Y56614D01*
G01X29651Y56544D01*
G01X29651Y56450D01*
G01X29652Y56410D01*
G01X29657Y56369D01*
G01X29664Y56331D01*
G01X29672Y56302D01*
G01X29693Y56247D01*
G01X29886Y56147D01*
G01X30077Y56147D01*
G01X30299Y56012D01*
G01X30299Y55962D01*
G01X30294Y55939D01*
G01X30282Y55912D01*
G01X30265Y55884D01*
G01X30243Y55858D01*
G01X30188Y55803D01*
G01X29838Y55823D01*
G01X29805Y55900D01*
G01X29771Y55977D01*
G01X29617Y55977D01*
G01X29617Y55852D01*
G01X29705Y55769D01*
G01X29793Y55687D01*
G01X30304Y55687D01*
G01X30390Y55786D01*
G01X30475Y55886D01*
G01X30454Y55990D01*
G01X30442Y56035D01*
G01X30425Y56079D01*
G01X30405Y56117D01*
G01X30385Y56144D01*
G01X30336Y56193D01*
G01X29875Y56309D01*
G01X29782Y56449D01*
G01X29853Y56520D01*
G01X29924Y56590D01*
G01X30162Y56590D01*
G01X30231Y56522D01*
G01X30299Y56454D01*
G01X30367Y56454D01*
G01X30411Y56457D01*
G01X30431Y56472D01*
G01X30426Y56503D01*
G01X30400Y56558D01*
G01X30365Y56624D01*
G01X30265Y56675D01*
G37*
G36*
G01X26374Y57068D02*
G01X26208Y57068D01*
G01X26208Y56692D01*
G01X25901Y56692D01*
G01X25901Y56590D01*
G01X26208Y56590D01*
G01X26208Y55974D01*
G01X26257Y55856D01*
G01X26307Y55738D01*
G01X26396Y55704D01*
G01X26438Y55691D01*
G01X26489Y55681D01*
G01X26546Y55675D01*
G01X26605Y55671D01*
G01X26663Y55671D01*
G01X26717Y55674D01*
G01X26764Y55680D01*
G01X26802Y55691D01*
G01X26855Y55711D01*
G01X26855Y55835D01*
G01X26677Y55819D01*
G01X26497Y55803D01*
G01X26446Y55837D01*
G01X26395Y55872D01*
G01X26395Y56573D01*
G01X26787Y56594D01*
G01X26787Y56689D01*
G01X26395Y56710D01*
G01X26385Y56888D01*
G01X26374Y57068D01*
G37*
G36*
G01X28878Y56716D02*
G01X28713Y56729D01*
G01X28587Y56654D01*
G01X28460Y56578D01*
G01X28407Y56468D01*
G01X28356Y56359D01*
G01X28356Y55994D01*
G01X28489Y55775D01*
G01X28598Y55719D01*
G01X28708Y55662D01*
G01X29083Y55694D01*
G01X29179Y55801D01*
G01X29276Y55909D01*
G01X29276Y56011D01*
G01X29105Y56011D01*
G01X29105Y55977D01*
G01X29100Y55958D01*
G01X29086Y55932D01*
G01X29064Y55903D01*
G01X29037Y55874D01*
G01X28969Y55806D01*
G01X28734Y55806D01*
G01X28558Y55960D01*
G01X28537Y56087D01*
G01X28517Y56215D01*
G01X29285Y56215D01*
G01X29247Y56499D01*
G01X29043Y56702D01*
G01X28878Y56716D01*
G37*
G36*
G01X25563Y56627D02*
G01X25463Y56727D01*
G01X25332Y56726D01*
G01X25202Y56725D01*
G01X25091Y56655D01*
G01X25048Y56625D01*
G01X25013Y56595D01*
G01X24989Y56570D01*
G01X24980Y56553D01*
G01X24978Y56541D01*
G01X24970Y56531D01*
G01X24960Y56525D01*
G01X24946Y56522D01*
G01X24912Y56522D01*
G01X24912Y56692D01*
G01X24776Y56692D01*
G01X24776Y55670D01*
G01X24912Y55670D01*
G01X24912Y56217D01*
G01X24960Y56331D01*
G01X24984Y56380D01*
G01X25016Y56432D01*
G01X25051Y56480D01*
G01X25086Y56517D01*
G01X25164Y56590D01*
G01X25386Y56590D01*
G01X25439Y56515D01*
G01X25492Y56439D01*
G01X25492Y55670D01*
G01X25662Y55670D01*
G01X25662Y56527D01*
G01X25563Y56627D01*
G37*

%LPD*%
G36*
G01X28928Y56590D02*
G01X28740Y56590D01*
G01X28560Y56449D01*
G01X28560Y56315D01*
G01X29088Y56335D01*
G01X29078Y56403D01*
G01X29067Y56471D01*
G01X28997Y56531D01*
G01X28928Y56590D01*
G37*

%LPD*%
G54D23*
G01X37282Y15875D02*
G01X37282Y13208D01*
G54D24*
G01X42230Y19694D02*
G01X25730Y19694D01*
G01X42230Y19683D02*
G01X42230Y42264D01*
G01X25730Y42264D02*
G01X42230Y42264D01*
G01X25730Y42264D02*
G01X25730Y19694D01*
G01X38552Y37465D02*
G01X36520Y37463D01*
G01X31186Y37463D02*
G01X29408Y37465D01*
G01X33980Y38479D02*
G01X33980Y27303D01*
G01X35250Y23239D01*
G01X38552Y25273D02*
G01X34742Y25271D01*
G01X35250Y24763D01*
G01X34742Y25271D02*
G01X35250Y25779D01*
G01X29408Y25273D02*
G01X31440Y25271D01*
G01X30932Y25779D01*
G01X31440Y25271D02*
G01X30932Y24763D01*
G01X35987Y42264D02*
G01X35987Y40765D01*
G01X36012Y40765D02*
G01X35137Y40765D01*
G01X32822Y40765D02*
G01X31948Y40765D01*
G01X31948Y40765D02*
G01X31948Y42264D01*
G01X45134Y34419D02*
G01X45134Y41019D01*
G01X48734Y41019D02*
G01X47732Y41019D01*
G01X46135Y41019D02*
G01X45134Y41019D01*
G01X48734Y34419D02*
G01X47732Y34419D01*
G01X46135Y34419D02*
G01X45134Y34419D01*
G01X48734Y41019D02*
G01X48734Y34419D01*
G01X52347Y28553D02*
G01X46147Y28553D01*
G01X52597Y27853D02*
G01X46097Y27853D01*
G01X46147Y32152D02*
G01X52547Y32152D01*
G01X46097Y32852D02*
G01X52597Y32852D01*
G01X49093Y30988D02*
G01X49093Y29718D01*
G01X49093Y29718D02*
G01X49601Y29718D01*
G01X49601Y29718D02*
G01X49601Y30988D01*
G01X49601Y30988D02*
G01X49093Y30988D01*
G01X48712Y30988D02*
G01X48712Y30353D01*
G01X48712Y30353D02*
G01X48712Y29718D01*
G01X48712Y30353D02*
G01X48331Y30353D01*
G01X49982Y30988D02*
G01X49982Y30353D01*
G01X49982Y30353D02*
G01X49982Y29718D01*
G01X49982Y30353D02*
G01X50363Y30353D01*
G01X60523Y50926D02*
G01X58364Y50926D01*
G01X58364Y13842D01*
G01X63952Y13842D01*
G01X63952Y50926D01*
G01X61793Y50926D01*
G01X49347Y25654D02*
G01X49347Y24638D01*
G01X50109Y25146D02*
G01X48585Y25146D01*
G01X10866Y48895D02*
G01X23566Y48895D01*
G01X23566Y43815D01*
G01X10866Y43815D01*
G01X10866Y48895D01*
G01X17216Y48895D02*
G01X21915Y48895D01*
G01X21915Y48006D01*
G01X17216Y48006D01*
G01X17216Y48895D01*
G01X10866Y43180D02*
G01X23566Y43180D01*
G01X23566Y38100D01*
G01X10866Y38100D01*
G01X10866Y43180D01*
G01X17216Y43180D02*
G01X21915Y43180D01*
G01X21915Y42291D01*
G01X17216Y42291D01*
G01X17216Y43180D01*
G01X10866Y37465D02*
G01X23566Y37465D01*
G01X23566Y32385D01*
G01X10866Y32385D01*
G01X10866Y37465D01*
G01X17216Y37465D02*
G01X21915Y37465D01*
G01X21915Y36576D01*
G01X17216Y36576D01*
G01X17216Y37465D01*
G01X10866Y31750D02*
G01X23566Y31750D01*
G01X23566Y26670D01*
G01X10866Y26670D01*
G01X10866Y31750D01*
G01X17216Y31750D02*
G01X21915Y31750D01*
G01X21915Y30861D01*
G01X17216Y30861D01*
G01X17216Y31750D01*
G01X49960Y34419D02*
G01X49960Y41019D01*
G01X53560Y41019D02*
G01X52558Y41019D01*
G01X50961Y41019D02*
G01X49960Y41019D01*
G01X53560Y34419D02*
G01X52558Y34419D01*
G01X50961Y34419D02*
G01X49960Y34419D01*
G01X53560Y41019D02*
G01X53560Y34419D01*
G01X38425Y508D02*
G01X32427Y508D01*
G01X32427Y2506D01*
G01X38425Y2506D01*
G01X38425Y508D01*
G01X61539Y2540D02*
G01X9539Y2540D01*
G01X9539Y12539D01*
G01X61539Y12539D01*
G01X61539Y2540D01*
G01X25979Y46250D02*
G01X25979Y48491D01*
G01X31731Y44323D02*
G01X26830Y44323D01*
G01X32583Y46250D02*
G01X32583Y48491D01*
G01X31731Y50419D02*
G01X26830Y50419D01*
G01X10866Y20320D02*
G01X23566Y20320D01*
G01X23566Y15240D01*
G01X10866Y15240D01*
G01X10866Y20320D01*
G01X17216Y20320D02*
G01X21915Y20320D01*
G01X21915Y19431D01*
G01X17216Y19431D01*
G01X17216Y20320D01*
G01X10866Y26035D02*
G01X23566Y26035D01*
G01X23566Y20955D01*
G01X10866Y20955D01*
G01X10866Y26035D01*
G01X17216Y26035D02*
G01X21915Y26035D01*
G01X21915Y25146D01*
G01X17216Y25146D01*
G01X17216Y26035D01*

%LPD*%
G36*
G01X46334Y58211D02*
G01X45885Y58211D01*
G01X45885Y58097D01*
G01X46334Y58097D01*
G01X46334Y58211D01*
G37*

%LPD*%
G36*
G01X42974Y58211D02*
G01X42524Y58211D01*
G01X42524Y58097D01*
G01X42974Y58097D01*
G01X42974Y58211D01*
G37*

%LPD*%
G36*
G01X46741Y58958D02*
G01X46593Y58958D01*
G01X46593Y57658D01*
G01X46741Y57658D01*
G01X46741Y58958D01*
G37*

%LPD*%
G36*
G01X45620Y58958D02*
G01X45473Y58958D01*
G01X45473Y57658D01*
G01X45620Y57658D01*
G01X45620Y58958D01*
G37*

%LPD*%
G36*
G01X43594Y58958D02*
G01X43233Y58958D01*
G01X43233Y57658D01*
G01X43380Y57658D01*
G01X43380Y58183D01*
G01X43601Y58183D01*
G01X43671Y58186D01*
G01X43736Y58194D01*
G01X43797Y58208D01*
G01X43853Y58227D01*
G01X43903Y58251D01*
G01X43948Y58282D01*
G01X43986Y58317D01*
G01X44019Y58359D01*
G01X44045Y58406D01*
G01X44063Y58459D01*
G01X44075Y58518D01*
G01X44079Y58582D01*
G01X44075Y58648D01*
G01X44063Y58707D01*
G01X44044Y58759D01*
G01X44018Y58804D01*
G01X43986Y58842D01*
G01X43947Y58875D01*
G01X43901Y58902D01*
G01X43850Y58922D01*
G01X43794Y58939D01*
G01X43732Y58949D01*
G01X43665Y58956D01*
G01X43594Y58958D01*
G37*

%LPC*%
G36*
G01X43573Y58841D02*
G01X43380Y58841D01*
G01X43380Y58305D01*
G01X43581Y58305D01*
G01X43664Y58309D01*
G01X43735Y58321D01*
G01X43796Y58342D01*
G01X43844Y58371D01*
G01X43883Y58410D01*
G01X43910Y58458D01*
G01X43926Y58514D01*
G01X43931Y58582D01*
G01X43926Y58649D01*
G01X43908Y58705D01*
G01X43881Y58750D01*
G01X43841Y58785D01*
G01X43790Y58811D01*
G01X43729Y58828D01*
G01X43657Y58838D01*
G01X43573Y58841D01*
G37*

%LPD*%
G36*
G01X41109Y58958D02*
G01X40960Y58958D01*
G01X41239Y57658D01*
G01X41412Y57658D01*
G01X41615Y58468D01*
G01X41631Y58542D01*
G01X41648Y58615D01*
G01X41666Y58688D01*
G01X41683Y58762D01*
G01X41689Y58762D01*
G01X41705Y58688D01*
G01X41738Y58542D01*
G01X41755Y58468D01*
G01X41963Y57658D01*
G01X42136Y57658D01*
G01X42410Y58958D01*
G01X42270Y58958D01*
G01X42125Y58237D01*
G01X42105Y58132D01*
G01X42096Y58079D01*
G01X42086Y58027D01*
G01X42059Y57868D01*
G01X42049Y57815D01*
G01X42039Y57815D01*
G01X42016Y57922D01*
G01X42004Y57974D01*
G01X41992Y58028D01*
G01X41980Y58081D01*
G01X41968Y58133D01*
G01X41945Y58237D01*
G01X41757Y58958D01*
G01X41620Y58958D01*
G01X41435Y58237D01*
G01X41411Y58132D01*
G01X41399Y58079D01*
G01X41388Y58027D01*
G01X41352Y57868D01*
G01X41341Y57815D01*
G01X41333Y57815D01*
G01X41323Y57868D01*
G01X41314Y57921D01*
G01X41303Y57974D01*
G01X41294Y58027D01*
G01X41284Y58079D01*
G01X41273Y58132D01*
G01X41254Y58237D01*
G01X41109Y58958D01*
G37*

%LPD*%
G36*
G01X38521Y58958D02*
G01X38369Y58958D01*
G01X38651Y57658D01*
G01X38823Y57658D01*
G01X39027Y58468D01*
G01X39043Y58542D01*
G01X39076Y58688D01*
G01X39093Y58762D01*
G01X39100Y58762D01*
G01X39117Y58688D01*
G01X39149Y58542D01*
G01X39164Y58468D01*
G01X39372Y57658D01*
G01X39547Y57658D01*
G01X39822Y58958D01*
G01X39679Y58958D01*
G01X39537Y58237D01*
G01X39517Y58132D01*
G01X39507Y58079D01*
G01X39497Y58027D01*
G01X39461Y57815D01*
G01X39451Y57815D01*
G01X39426Y57922D01*
G01X39414Y57974D01*
G01X39403Y58028D01*
G01X39391Y58081D01*
G01X39379Y58133D01*
G01X39354Y58237D01*
G01X39169Y58958D01*
G01X39032Y58958D01*
G01X38846Y58237D01*
G01X38822Y58132D01*
G01X38810Y58079D01*
G01X38799Y58027D01*
G01X38775Y57921D01*
G01X38764Y57868D01*
G01X38752Y57815D01*
G01X38745Y57815D01*
G01X38715Y57974D01*
G01X38706Y58027D01*
G01X38695Y58079D01*
G01X38685Y58132D01*
G01X38666Y58237D01*
G01X38521Y58958D01*
G37*

%LPD*%
G36*
G01X37752Y58958D02*
G01X37391Y58958D01*
G01X37391Y57658D01*
G01X37538Y57658D01*
G01X37538Y58183D01*
G01X37759Y58183D01*
G01X37829Y58186D01*
G01X37894Y58194D01*
G01X37954Y58208D01*
G01X38010Y58227D01*
G01X38060Y58251D01*
G01X38104Y58282D01*
G01X38143Y58317D01*
G01X38175Y58359D01*
G01X38200Y58406D01*
G01X38219Y58459D01*
G01X38230Y58518D01*
G01X38234Y58582D01*
G01X38230Y58648D01*
G01X38219Y58707D01*
G01X38200Y58759D01*
G01X38174Y58804D01*
G01X38141Y58842D01*
G01X38103Y58875D01*
G01X38057Y58902D01*
G01X38007Y58922D01*
G01X37950Y58939D01*
G01X37889Y58949D01*
G01X37822Y58956D01*
G01X37752Y58958D01*
G37*

%LPC*%
G36*
G01X37731Y58841D02*
G01X37538Y58841D01*
G01X37538Y58305D01*
G01X37736Y58305D01*
G01X37820Y58309D01*
G01X37892Y58321D01*
G01X37953Y58342D01*
G01X38002Y58371D01*
G01X38041Y58410D01*
G01X38068Y58458D01*
G01X38084Y58514D01*
G01X38089Y58582D01*
G01X38084Y58649D01*
G01X38066Y58705D01*
G01X38039Y58750D01*
G01X37999Y58785D01*
G01X37948Y58811D01*
G01X37887Y58828D01*
G01X37815Y58838D01*
G01X37731Y58841D01*
G37*

%LPD*%
G36*
G01X36497Y58958D02*
G01X36177Y58958D01*
G01X36177Y57658D01*
G01X36502Y57658D01*
G01X36573Y57661D01*
G01X36641Y57669D01*
G01X36704Y57683D01*
G01X36762Y57702D01*
G01X36816Y57727D01*
G01X36866Y57757D01*
G01X36910Y57792D01*
G01X36950Y57832D01*
G01X36986Y57876D01*
G01X37017Y57926D01*
G01X37043Y57980D01*
G01X37065Y58038D01*
G01X37082Y58100D01*
G01X37094Y58167D01*
G01X37101Y58238D01*
G01X37104Y58313D01*
G01X37101Y58387D01*
G01X37094Y58458D01*
G01X37082Y58524D01*
G01X37065Y58586D01*
G01X37043Y58644D01*
G01X37017Y58697D01*
G01X36986Y58745D01*
G01X36950Y58789D01*
G01X36909Y58827D01*
G01X36864Y58861D01*
G01X36814Y58891D01*
G01X36760Y58915D01*
G01X36701Y58934D01*
G01X36637Y58947D01*
G01X36569Y58955D01*
G01X36497Y58958D01*
G37*

%LPC*%
G36*
G01X36484Y58839D02*
G01X36324Y58839D01*
G01X36324Y57779D01*
G01X36484Y57779D01*
G01X36541Y57782D01*
G01X36595Y57789D01*
G01X36645Y57800D01*
G01X36690Y57816D01*
G01X36732Y57836D01*
G01X36771Y57861D01*
G01X36806Y57889D01*
G01X36837Y57921D01*
G01X36865Y57958D01*
G01X36888Y57998D01*
G01X36908Y58042D01*
G01X36925Y58089D01*
G01X36938Y58140D01*
G01X36947Y58194D01*
G01X36952Y58252D01*
G01X36954Y58313D01*
G01X36952Y58374D01*
G01X36947Y58431D01*
G01X36938Y58485D01*
G01X36925Y58535D01*
G01X36908Y58582D01*
G01X36888Y58625D01*
G01X36865Y58665D01*
G01X36837Y58700D01*
G01X36806Y58732D01*
G01X36771Y58760D01*
G01X36732Y58784D01*
G01X36690Y58803D01*
G01X36645Y58819D01*
G01X36595Y58829D01*
G01X36541Y58837D01*
G01X36484Y58839D01*
G37*

%LPD*%
G36*
G01X34084Y58958D02*
G01X33705Y58958D01*
G01X33705Y57658D01*
G01X34112Y57658D01*
G01X34183Y57660D01*
G01X34250Y57668D01*
G01X34312Y57681D01*
G01X34369Y57700D01*
G01X34421Y57724D01*
G01X34468Y57752D01*
G01X34508Y57787D01*
G01X34541Y57827D01*
G01X34568Y57872D01*
G01X34588Y57922D01*
G01X34600Y57978D01*
G01X34604Y58039D01*
G01X34599Y58101D01*
G01X34585Y58158D01*
G01X34561Y58208D01*
G01X34529Y58250D01*
G01X34490Y58285D01*
G01X34444Y58314D01*
G01X34392Y58336D01*
G01X34335Y58351D01*
G01X34335Y58359D01*
G01X34379Y58377D01*
G01X34418Y58402D01*
G01X34451Y58432D01*
G01X34478Y58466D01*
G01X34500Y58505D01*
G01X34516Y58548D01*
G01X34525Y58593D01*
G01X34528Y58640D01*
G01X34525Y58694D01*
G01X34514Y58743D01*
G01X34496Y58785D01*
G01X34472Y58823D01*
G01X34441Y58856D01*
G01X34405Y58884D01*
G01X34363Y58907D01*
G01X34316Y58926D01*
G01X34265Y58940D01*
G01X34208Y58950D01*
G01X34148Y58956D01*
G01X34084Y58958D01*
G37*

%LPC*%
G36*
G01X34061Y58841D02*
G01X33855Y58841D01*
G01X33855Y58402D01*
G01X34053Y58402D01*
G01X34135Y58406D01*
G01X34203Y58417D01*
G01X34260Y58435D01*
G01X34305Y58461D01*
G01X34339Y58493D01*
G01X34363Y58530D01*
G01X34376Y58574D01*
G01X34381Y58623D01*
G01X34376Y58678D01*
G01X34361Y58724D01*
G01X34336Y58762D01*
G01X34301Y58792D01*
G01X34256Y58814D01*
G01X34201Y58829D01*
G01X34136Y58838D01*
G01X34061Y58841D01*
G37*
G36*
G01X34089Y58287D02*
G01X33855Y58287D01*
G01X33855Y57774D01*
G01X34089Y57774D01*
G01X34171Y57778D01*
G01X34244Y57790D01*
G01X34308Y57810D01*
G01X34361Y57839D01*
G01X34403Y57877D01*
G01X34434Y57923D01*
G01X34453Y57979D01*
G01X34460Y58044D01*
G01X34454Y58102D01*
G01X34435Y58152D01*
G01X34405Y58194D01*
G01X34363Y58228D01*
G01X34310Y58254D01*
G01X34246Y58273D01*
G01X34173Y58284D01*
G01X34089Y58287D01*
G37*

%LPD*%
G36*
G01X44898Y58980D02*
G01X44841Y58983D01*
G01X44780Y58980D01*
G01X44721Y58972D01*
G01X44665Y58957D01*
G01X44612Y58937D01*
G01X44562Y58911D01*
G01X44515Y58880D01*
G01X44471Y58844D01*
G01X44431Y58803D01*
G01X44395Y58757D01*
G01X44363Y58706D01*
G01X44335Y58650D01*
G01X44312Y58590D01*
G01X44294Y58526D01*
G01X44280Y58457D01*
G01X44272Y58384D01*
G01X44269Y58308D01*
G01X44272Y58231D01*
G01X44280Y58158D01*
G01X44294Y58089D01*
G01X44311Y58025D01*
G01X44334Y57965D01*
G01X44362Y57909D01*
G01X44393Y57859D01*
G01X44429Y57813D01*
G01X44468Y57772D01*
G01X44511Y57736D01*
G01X44557Y57706D01*
G01X44606Y57680D01*
G01X44659Y57661D01*
G01X44714Y57646D01*
G01X44771Y57638D01*
G01X44831Y57635D01*
G01X44891Y57638D01*
G01X44949Y57647D01*
G01X45003Y57663D01*
G01X45054Y57683D01*
G01X45101Y57710D01*
G01X45145Y57742D01*
G01X45188Y57778D01*
G01X45227Y57820D01*
G01X45143Y57914D01*
G01X45077Y57850D01*
G01X45005Y57803D01*
G01X44925Y57774D01*
G01X44836Y57764D01*
G01X44774Y57769D01*
G01X44717Y57781D01*
G01X44664Y57802D01*
G01X44615Y57831D01*
G01X44572Y57868D01*
G01X44533Y57912D01*
G01X44500Y57963D01*
G01X44472Y58020D01*
G01X44451Y58085D01*
G01X44435Y58155D01*
G01X44425Y58231D01*
G01X44422Y58313D01*
G01X44425Y58393D01*
G01X44435Y58468D01*
G01X44452Y58537D01*
G01X44474Y58600D01*
G01X44502Y58657D01*
G01X44536Y58707D01*
G01X44575Y58750D01*
G01X44620Y58786D01*
G01X44669Y58814D01*
G01X44723Y58835D01*
G01X44781Y58847D01*
G01X44843Y58851D01*
G01X44923Y58843D01*
G01X44994Y58818D01*
G01X45057Y58779D01*
G01X45112Y58727D01*
G01X45194Y58823D01*
G01X45164Y58853D01*
G01X45130Y58883D01*
G01X45091Y58910D01*
G01X45048Y58934D01*
G01X45002Y58954D01*
G01X44952Y58970D01*
G01X44898Y58980D01*
G37*

%LPD*%
G36*
G01X40466Y58980D02*
G01X40408Y58983D01*
G01X40352Y58980D01*
G01X40298Y58972D01*
G01X40248Y58958D01*
G01X40202Y58939D01*
G01X40159Y58915D01*
G01X40121Y58887D01*
G01X40088Y58855D01*
G01X40060Y58819D01*
G01X40037Y58780D01*
G01X40021Y58737D01*
G01X40011Y58691D01*
G01X40007Y58643D01*
G01X40014Y58576D01*
G01X40031Y58518D01*
G01X40059Y58468D01*
G01X40095Y58426D01*
G01X40136Y58390D01*
G01X40181Y58359D01*
G01X40228Y58334D01*
G01X40274Y58313D01*
G01X40462Y58229D01*
G01X40507Y58208D01*
G01X40549Y58188D01*
G01X40586Y58166D01*
G01X40619Y58141D01*
G01X40646Y58112D01*
G01X40665Y58078D01*
G01X40678Y58036D01*
G01X40683Y57988D01*
G01X40678Y57940D01*
G01X40663Y57897D01*
G01X40640Y57859D01*
G01X40607Y57826D01*
G01X40566Y57800D01*
G01X40518Y57780D01*
G01X40462Y57768D01*
G01X40398Y57764D01*
G01X40346Y57767D01*
G01X40296Y57776D01*
G01X40246Y57790D01*
G01X40198Y57809D01*
G01X40153Y57832D01*
G01X40110Y57861D01*
G01X40070Y57893D01*
G01X40032Y57929D01*
G01X39944Y57828D01*
G01X39987Y57785D01*
G01X40035Y57747D01*
G01X40087Y57714D01*
G01X40142Y57686D01*
G01X40201Y57664D01*
G01X40263Y57648D01*
G01X40328Y57638D01*
G01X40396Y57635D01*
G01X40461Y57638D01*
G01X40522Y57647D01*
G01X40578Y57663D01*
G01X40629Y57683D01*
G01X40675Y57709D01*
G01X40715Y57740D01*
G01X40750Y57775D01*
G01X40779Y57813D01*
G01X40802Y57856D01*
G01X40819Y57900D01*
G01X40829Y57948D01*
G01X40833Y57998D01*
G01X40827Y58066D01*
G01X40811Y58126D01*
G01X40786Y58177D01*
G01X40753Y58222D01*
G01X40713Y58260D01*
G01X40667Y58293D01*
G01X40617Y58322D01*
G01X40563Y58348D01*
G01X40373Y58427D01*
G01X40297Y58462D01*
G01X40228Y58506D01*
G01X40177Y58567D01*
G01X40157Y58653D01*
G01X40161Y58697D01*
G01X40175Y58735D01*
G01X40197Y58770D01*
G01X40226Y58798D01*
G01X40263Y58821D01*
G01X40306Y58838D01*
G01X40355Y58848D01*
G01X40408Y58851D01*
G01X40497Y58843D01*
G01X40575Y58818D01*
G01X40647Y58779D01*
G01X40711Y58727D01*
G01X40789Y58823D01*
G01X40753Y58857D01*
G01X40713Y58888D01*
G01X40670Y58915D01*
G01X40624Y58939D01*
G01X40574Y58957D01*
G01X40522Y58972D01*
G01X40466Y58980D01*
G37*

%LPD*%
G36*
G01X35398Y58980D02*
G01X35339Y58983D01*
G01X35279Y58980D01*
G01X35222Y58972D01*
G01X35168Y58957D01*
G01X35117Y58937D01*
G01X35068Y58911D01*
G01X35023Y58880D01*
G01X34981Y58844D01*
G01X34943Y58804D01*
G01X34909Y58757D01*
G01X34878Y58707D01*
G01X34852Y58652D01*
G01X34830Y58592D01*
G01X34813Y58528D01*
G01X34800Y58461D01*
G01X34792Y58389D01*
G01X34790Y58313D01*
G01X34792Y58237D01*
G01X34800Y58165D01*
G01X34813Y58096D01*
G01X34830Y58032D01*
G01X34852Y57972D01*
G01X34878Y57916D01*
G01X34909Y57865D01*
G01X34943Y57819D01*
G01X34981Y57777D01*
G01X35023Y57740D01*
G01X35068Y57708D01*
G01X35117Y57682D01*
G01X35168Y57662D01*
G01X35222Y57647D01*
G01X35279Y57638D01*
G01X35339Y57635D01*
G01X35398Y57638D01*
G01X35455Y57647D01*
G01X35509Y57662D01*
G01X35561Y57682D01*
G01X35609Y57708D01*
G01X35654Y57740D01*
G01X35697Y57777D01*
G01X35735Y57819D01*
G01X35770Y57865D01*
G01X35800Y57916D01*
G01X35827Y57972D01*
G01X35849Y58032D01*
G01X35866Y58096D01*
G01X35879Y58165D01*
G01X35887Y58237D01*
G01X35890Y58313D01*
G01X35887Y58389D01*
G01X35879Y58461D01*
G01X35866Y58528D01*
G01X35849Y58592D01*
G01X35827Y58652D01*
G01X35800Y58707D01*
G01X35770Y58757D01*
G01X35735Y58804D01*
G01X35697Y58844D01*
G01X35654Y58880D01*
G01X35609Y58911D01*
G01X35561Y58937D01*
G01X35509Y58957D01*
G01X35455Y58972D01*
G01X35398Y58980D01*
G37*

%LPC*%
G36*
G01X35397Y58847D02*
G01X35339Y58851D01*
G01X35281Y58847D01*
G01X35226Y58835D01*
G01X35175Y58814D01*
G01X35129Y58786D01*
G01X35087Y58750D01*
G01X35049Y58707D01*
G01X35017Y58657D01*
G01X34990Y58600D01*
G01X34969Y58537D01*
G01X34953Y58468D01*
G01X34943Y58393D01*
G01X34940Y58313D01*
G01X34943Y58232D01*
G01X34953Y58157D01*
G01X34969Y58087D01*
G01X34990Y58023D01*
G01X35017Y57965D01*
G01X35049Y57914D01*
G01X35087Y57869D01*
G01X35129Y57832D01*
G01X35175Y57803D01*
G01X35226Y57782D01*
G01X35281Y57769D01*
G01X35339Y57764D01*
G01X35397Y57769D01*
G01X35452Y57782D01*
G01X35503Y57803D01*
G01X35550Y57832D01*
G01X35592Y57869D01*
G01X35630Y57914D01*
G01X35662Y57965D01*
G01X35690Y58023D01*
G01X35711Y58087D01*
G01X35727Y58157D01*
G01X35737Y58232D01*
G01X35740Y58313D01*
G01X35737Y58393D01*
G01X35727Y58468D01*
G01X35711Y58537D01*
G01X35690Y58600D01*
G01X35662Y58657D01*
G01X35630Y58707D01*
G01X35592Y58750D01*
G01X35550Y58786D01*
G01X35503Y58814D01*
G01X35452Y58835D01*
G01X35397Y58847D01*
G37*

%LPD*%
G36*
G01X33350Y58958D02*
G01X33202Y58958D01*
G01X33202Y58046D01*
G01X33199Y57977D01*
G01X33189Y57918D01*
G01X33172Y57869D01*
G01X33149Y57830D01*
G01X33119Y57800D01*
G01X33081Y57780D01*
G01X33037Y57768D01*
G01X32986Y57764D01*
G01X32917Y57772D01*
G01X32856Y57798D01*
G01X32802Y57843D01*
G01X32755Y57912D01*
G01X32649Y57838D01*
G01X32678Y57791D01*
G01X32712Y57749D01*
G01X32750Y57714D01*
G01X32791Y57686D01*
G01X32837Y57664D01*
G01X32887Y57647D01*
G01X32941Y57638D01*
G01X32999Y57635D01*
G01X33059Y57638D01*
G01X33112Y57649D01*
G01X33160Y57666D01*
G01X33202Y57689D01*
G01X33238Y57717D01*
G01X33269Y57751D01*
G01X33294Y57790D01*
G01X33315Y57832D01*
G01X33330Y57878D01*
G01X33341Y57927D01*
G01X33348Y57979D01*
G01X33350Y58033D01*
G01X33350Y58958D01*
G37*

%LPD*%

%LPD*%
G36*
G01X41820Y56949D02*
G01X41762Y56954D01*
G01X41681Y56944D01*
G01X41610Y56916D01*
G01X41547Y56873D01*
G01X41490Y56817D01*
G01X41551Y56758D01*
G01X41594Y56802D01*
G01X41641Y56837D01*
G01X41693Y56861D01*
G01X41749Y56870D01*
G01X41827Y56855D01*
G01X41882Y56815D01*
G01X41914Y56753D01*
G01X41925Y56677D01*
G01X41922Y56636D01*
G01X41914Y56594D01*
G01X41900Y56551D01*
G01X41880Y56505D01*
G01X41855Y56459D01*
G01X41823Y56409D01*
G01X41785Y56359D01*
G01X41741Y56305D01*
G01X41690Y56249D01*
G01X41633Y56191D01*
G01X41569Y56131D01*
G01X41498Y56067D01*
G01X41498Y56007D01*
G01X42072Y56007D01*
G01X42072Y56095D01*
G01X41769Y56095D01*
G01X41691Y56091D01*
G01X41653Y56088D01*
G01X41708Y56141D01*
G01X41759Y56192D01*
G01X41807Y56244D01*
G01X41850Y56295D01*
G01X41890Y56344D01*
G01X41924Y56394D01*
G01X41955Y56442D01*
G01X41980Y56491D01*
G01X42000Y56539D01*
G01X42014Y56587D01*
G01X42023Y56634D01*
G01X42026Y56682D01*
G01X42022Y56741D01*
G01X42008Y56794D01*
G01X41986Y56841D01*
G01X41955Y56880D01*
G01X41917Y56911D01*
G01X41872Y56935D01*
G01X41820Y56949D01*
G37*

%LPD*%
G36*
G01X40427Y56949D02*
G01X40368Y56954D01*
G01X40286Y56944D01*
G01X40217Y56916D01*
G01X40154Y56873D01*
G01X40096Y56817D01*
G01X40157Y56758D01*
G01X40200Y56802D01*
G01X40247Y56837D01*
G01X40300Y56861D01*
G01X40355Y56870D01*
G01X40433Y56855D01*
G01X40489Y56815D01*
G01X40522Y56753D01*
G01X40533Y56677D01*
G01X40530Y56636D01*
G01X40522Y56594D01*
G01X40507Y56551D01*
G01X40488Y56505D01*
G01X40462Y56459D01*
G01X40430Y56409D01*
G01X40392Y56359D01*
G01X40347Y56305D01*
G01X40296Y56249D01*
G01X40239Y56191D01*
G01X40175Y56131D01*
G01X40104Y56067D01*
G01X40104Y56007D01*
G01X40678Y56007D01*
G01X40678Y56095D01*
G01X40375Y56095D01*
G01X40336Y56093D01*
G01X40296Y56091D01*
G01X40259Y56088D01*
G01X40313Y56141D01*
G01X40365Y56192D01*
G01X40412Y56244D01*
G01X40456Y56295D01*
G01X40495Y56344D01*
G01X40530Y56394D01*
G01X40560Y56442D01*
G01X40585Y56491D01*
G01X40605Y56539D01*
G01X40620Y56587D01*
G01X40629Y56634D01*
G01X40632Y56682D01*
G01X40627Y56741D01*
G01X40614Y56794D01*
G01X40592Y56841D01*
G01X40562Y56880D01*
G01X40524Y56911D01*
G01X40478Y56935D01*
G01X40427Y56949D01*
G37*

%LPD*%
G36*
G01X38928Y56936D02*
G01X38399Y56936D01*
G01X38399Y56007D01*
G01X38940Y56007D01*
G01X38940Y56095D01*
G01X38503Y56095D01*
G01X38503Y56454D01*
G01X38862Y56454D01*
G01X38862Y56540D01*
G01X38503Y56540D01*
G01X38503Y56847D01*
G01X38928Y56847D01*
G01X38928Y56936D01*
G37*

%LPD*%
G36*
G01X36672Y56936D02*
G01X36593Y56936D01*
G01X36555Y56916D01*
G01X36511Y56900D01*
G01X36462Y56885D01*
G01X36405Y56873D01*
G01X36405Y56807D01*
G01X36570Y56807D01*
G01X36570Y56093D01*
G01X36362Y56093D01*
G01X36362Y56007D01*
G01X36863Y56007D01*
G01X36863Y56093D01*
G01X36672Y56093D01*
G01X36672Y56936D01*
G37*

%LPD*%
G36*
G01X35588Y56949D02*
G01X35529Y56954D01*
G01X35449Y56944D01*
G01X35379Y56916D01*
G01X35316Y56873D01*
G01X35257Y56817D01*
G01X35318Y56758D01*
G01X35361Y56802D01*
G01X35409Y56837D01*
G01X35462Y56861D01*
G01X35519Y56870D01*
G01X35597Y56855D01*
G01X35651Y56815D01*
G01X35683Y56753D01*
G01X35694Y56677D01*
G01X35692Y56636D01*
G01X35683Y56594D01*
G01X35669Y56551D01*
G01X35649Y56505D01*
G01X35623Y56459D01*
G01X35591Y56409D01*
G01X35553Y56359D01*
G01X35508Y56305D01*
G01X35457Y56249D01*
G01X35400Y56191D01*
G01X35336Y56131D01*
G01X35265Y56067D01*
G01X35265Y56007D01*
G01X35839Y56007D01*
G01X35839Y56095D01*
G01X35536Y56095D01*
G01X35460Y56091D01*
G01X35422Y56088D01*
G01X35477Y56141D01*
G01X35529Y56192D01*
G01X35576Y56244D01*
G01X35619Y56295D01*
G01X35659Y56344D01*
G01X35694Y56394D01*
G01X35724Y56442D01*
G01X35749Y56491D01*
G01X35769Y56539D01*
G01X35784Y56587D01*
G01X35793Y56634D01*
G01X35796Y56682D01*
G01X35791Y56741D01*
G01X35777Y56794D01*
G01X35755Y56841D01*
G01X35724Y56880D01*
G01X35686Y56911D01*
G01X35640Y56935D01*
G01X35588Y56949D01*
G37*

%LPD*%
G36*
G01X34599Y56936D02*
G01X34490Y56936D01*
G01X34790Y56007D01*
G01X34909Y56007D01*
G01X35206Y56936D01*
G01X35100Y56936D01*
G01X34947Y56423D01*
G01X34922Y56343D01*
G01X34901Y56269D01*
G01X34878Y56194D01*
G01X34853Y56116D01*
G01X34848Y56116D01*
G01X34823Y56194D01*
G01X34802Y56269D01*
G01X34780Y56343D01*
G01X34757Y56423D01*
G01X34599Y56936D01*
G37*

%LPD*%
G36*
G01X43540Y56951D02*
G01X43497Y56954D01*
G01X43444Y56948D01*
G01X43395Y56932D01*
G01X43351Y56905D01*
G01X43312Y56870D01*
G01X43280Y56826D01*
G01X43256Y56775D01*
G01X43240Y56717D01*
G01X43235Y56654D01*
G01X43240Y56586D01*
G01X43253Y56527D01*
G01X43274Y56477D01*
G01X43303Y56436D01*
G01X43340Y56404D01*
G01X43383Y56380D01*
G01X43434Y56367D01*
G01X43489Y56362D01*
G01X43549Y56370D01*
G01X43606Y56394D01*
G01X43660Y56431D01*
G01X43708Y56479D01*
G01X43700Y56375D01*
G01X43683Y56289D01*
G01X43660Y56219D01*
G01X43631Y56164D01*
G01X43596Y56124D01*
G01X43556Y56096D01*
G01X43514Y56080D01*
G01X43469Y56075D01*
G01X43423Y56080D01*
G01X43381Y56095D01*
G01X43342Y56118D01*
G01X43309Y56149D01*
G01X43253Y56083D01*
G01X43294Y56046D01*
G01X43343Y56016D01*
G01X43401Y55996D01*
G01X43469Y55989D01*
G01X43512Y55992D01*
G01X43555Y56001D01*
G01X43596Y56017D01*
G01X43634Y56041D01*
G01X43670Y56071D01*
G01X43702Y56109D01*
G01X43732Y56155D01*
G01X43757Y56209D01*
G01X43776Y56272D01*
G01X43792Y56343D01*
G01X43801Y56424D01*
G01X43804Y56515D01*
G01X43802Y56585D01*
G01X43794Y56649D01*
G01X43781Y56707D01*
G01X43764Y56758D01*
G01X43743Y56804D01*
G01X43717Y56844D01*
G01X43688Y56877D01*
G01X43655Y56905D01*
G01X43620Y56926D01*
G01X43581Y56942D01*
G01X43540Y56951D01*
G37*

%LPC*%
G36*
G01X43541Y56868D02*
G01X43497Y56873D01*
G01X43431Y56857D01*
G01X43379Y56812D01*
G01X43345Y56743D01*
G01X43332Y56654D01*
G01X43343Y56566D01*
G01X43376Y56498D01*
G01X43429Y56454D01*
G01X43505Y56438D01*
G01X43555Y56445D01*
G01X43607Y56468D01*
G01X43658Y56508D01*
G01X43705Y56565D01*
G01X43698Y56635D01*
G01X43685Y56697D01*
G01X43667Y56750D01*
G01X43643Y56793D01*
G01X43614Y56827D01*
G01X43580Y56852D01*
G01X43541Y56868D01*
G37*

%LPD*%
G36*
G01X43035Y56150D02*
G01X43004Y56156D01*
G01X42974Y56150D01*
G01X42949Y56132D01*
G01X42932Y56106D01*
G01X42926Y56073D01*
G01X42932Y56039D01*
G01X42949Y56013D01*
G01X42974Y55995D01*
G01X43004Y55989D01*
G01X43035Y55995D01*
G01X43060Y56013D01*
G01X43077Y56039D01*
G01X43083Y56073D01*
G01X43077Y56106D01*
G01X43060Y56132D01*
G01X43035Y56150D01*
G37*

%LPD*%
G36*
G01X42528Y56951D02*
G01X42486Y56954D01*
G01X42443Y56951D01*
G01X42404Y56941D01*
G01X42367Y56924D01*
G01X42334Y56901D01*
G01X42304Y56871D01*
G01X42277Y56835D01*
G01X42254Y56792D01*
G01X42235Y56742D01*
G01X42219Y56685D01*
G01X42208Y56621D01*
G01X42202Y56551D01*
G01X42199Y56474D01*
G01X42202Y56397D01*
G01X42208Y56326D01*
G01X42219Y56262D01*
G01X42235Y56205D01*
G01X42254Y56154D01*
G01X42277Y56110D01*
G01X42304Y56073D01*
G01X42334Y56043D01*
G01X42367Y56019D01*
G01X42404Y56002D01*
G01X42443Y55992D01*
G01X42486Y55989D01*
G01X42528Y55992D01*
G01X42568Y56002D01*
G01X42604Y56019D01*
G01X42637Y56043D01*
G01X42667Y56073D01*
G01X42693Y56110D01*
G01X42715Y56154D01*
G01X42734Y56205D01*
G01X42749Y56262D01*
G01X42759Y56326D01*
G01X42766Y56397D01*
G01X42768Y56474D01*
G01X42766Y56551D01*
G01X42759Y56621D01*
G01X42749Y56685D01*
G01X42734Y56742D01*
G01X42715Y56792D01*
G01X42693Y56835D01*
G01X42667Y56871D01*
G01X42637Y56901D01*
G01X42604Y56924D01*
G01X42568Y56941D01*
G01X42528Y56951D01*
G37*

%LPC*%
G36*
G01X42525Y56864D02*
G01X42486Y56870D01*
G01X42446Y56864D01*
G01X42410Y56846D01*
G01X42378Y56816D01*
G01X42351Y56774D01*
G01X42330Y56719D01*
G01X42314Y56651D01*
G01X42304Y56569D01*
G01X42301Y56474D01*
G01X42304Y56378D01*
G01X42314Y56296D01*
G01X42330Y56226D01*
G01X42351Y56170D01*
G01X42378Y56127D01*
G01X42410Y56096D01*
G01X42446Y56079D01*
G01X42486Y56073D01*
G01X42525Y56079D01*
G01X42561Y56097D01*
G01X42592Y56127D01*
G01X42619Y56171D01*
G01X42640Y56226D01*
G01X42656Y56296D01*
G01X42665Y56378D01*
G01X42669Y56474D01*
G01X42665Y56569D01*
G01X42656Y56651D01*
G01X42640Y56719D01*
G01X42619Y56774D01*
G01X42592Y56816D01*
G01X42561Y56846D01*
G01X42525Y56864D01*
G37*

%LPD*%
G36*
G01X41134Y56951D02*
G01X41092Y56954D01*
G01X41049Y56951D01*
G01X41010Y56941D01*
G01X40973Y56924D01*
G01X40940Y56901D01*
G01X40910Y56871D01*
G01X40884Y56835D01*
G01X40861Y56792D01*
G01X40842Y56742D01*
G01X40827Y56685D01*
G01X40816Y56621D01*
G01X40809Y56551D01*
G01X40807Y56474D01*
G01X40809Y56397D01*
G01X40816Y56326D01*
G01X40827Y56262D01*
G01X40842Y56205D01*
G01X40861Y56154D01*
G01X40884Y56110D01*
G01X40910Y56073D01*
G01X40940Y56043D01*
G01X40973Y56019D01*
G01X41010Y56002D01*
G01X41049Y55992D01*
G01X41092Y55989D01*
G01X41134Y55992D01*
G01X41173Y56002D01*
G01X41209Y56019D01*
G01X41242Y56043D01*
G01X41272Y56073D01*
G01X41298Y56110D01*
G01X41321Y56154D01*
G01X41340Y56205D01*
G01X41354Y56262D01*
G01X41365Y56326D01*
G01X41372Y56397D01*
G01X41374Y56474D01*
G01X41372Y56551D01*
G01X41365Y56621D01*
G01X41354Y56685D01*
G01X41340Y56742D01*
G01X41321Y56792D01*
G01X41298Y56835D01*
G01X41272Y56871D01*
G01X41242Y56901D01*
G01X41209Y56924D01*
G01X41173Y56941D01*
G01X41134Y56951D01*
G37*

%LPC*%
G36*
G01X41131Y56864D02*
G01X41092Y56870D01*
G01X41051Y56864D01*
G01X41015Y56846D01*
G01X40984Y56816D01*
G01X40957Y56774D01*
G01X40935Y56719D01*
G01X40919Y56651D01*
G01X40910Y56569D01*
G01X40906Y56474D01*
G01X40910Y56378D01*
G01X40919Y56296D01*
G01X40935Y56226D01*
G01X40957Y56170D01*
G01X40984Y56127D01*
G01X41015Y56096D01*
G01X41051Y56079D01*
G01X41092Y56073D01*
G01X41131Y56079D01*
G01X41166Y56097D01*
G01X41197Y56127D01*
G01X41224Y56171D01*
G01X41246Y56226D01*
G01X41261Y56296D01*
G01X41271Y56378D01*
G01X41275Y56474D01*
G01X41271Y56569D01*
G01X41261Y56651D01*
G01X41246Y56719D01*
G01X41224Y56774D01*
G01X41197Y56816D01*
G01X41166Y56846D01*
G01X41131Y56864D01*
G37*

%LPD*%
G36*
G01X39485Y56945D02*
G01X39405Y56954D01*
G01X39345Y56949D01*
G01X39290Y56936D01*
G01X39240Y56914D01*
G01X39199Y56884D01*
G01X39165Y56849D01*
G01X39139Y56807D01*
G01X39124Y56761D01*
G01X39118Y56710D01*
G01X39135Y56622D01*
G01X39180Y56556D01*
G01X39240Y56508D01*
G01X39306Y56474D01*
G01X39441Y56413D01*
G01X39503Y56384D01*
G01X39554Y56350D01*
G01X39588Y56306D01*
G01X39601Y56243D01*
G01X39586Y56178D01*
G01X39545Y56127D01*
G01X39481Y56094D01*
G01X39395Y56083D01*
G01X39322Y56091D01*
G01X39253Y56114D01*
G01X39190Y56151D01*
G01X39136Y56200D01*
G01X39072Y56128D01*
G01X39137Y56071D01*
G01X39214Y56027D01*
G01X39300Y55999D01*
G01X39395Y55989D01*
G01X39463Y55994D01*
G01X39524Y56009D01*
G01X39577Y56033D01*
G01X39622Y56065D01*
G01X39659Y56104D01*
G01X39685Y56148D01*
G01X39702Y56198D01*
G01X39707Y56250D01*
G01X39692Y56342D01*
G01X39649Y56410D01*
G01X39587Y56461D01*
G01X39512Y56499D01*
G01X39380Y56555D01*
G01X39325Y56580D01*
G01X39276Y56613D01*
G01X39239Y56657D01*
G01X39225Y56718D01*
G01X39237Y56778D01*
G01X39274Y56822D01*
G01X39331Y56850D01*
G01X39405Y56860D01*
G01X39467Y56854D01*
G01X39523Y56837D01*
G01X39574Y56809D01*
G01X39618Y56771D01*
G01X39674Y56837D01*
G01X39621Y56884D01*
G01X39558Y56921D01*
G01X39485Y56945D01*
G37*

%LPD*%
G36*
G01X37679Y56951D02*
G01X37637Y56954D01*
G01X37595Y56951D01*
G01X37555Y56941D01*
G01X37519Y56924D01*
G01X37485Y56901D01*
G01X37456Y56871D01*
G01X37429Y56835D01*
G01X37407Y56792D01*
G01X37388Y56742D01*
G01X37373Y56685D01*
G01X37362Y56621D01*
G01X37355Y56551D01*
G01X37353Y56474D01*
G01X37355Y56397D01*
G01X37362Y56326D01*
G01X37373Y56262D01*
G01X37388Y56205D01*
G01X37407Y56154D01*
G01X37429Y56110D01*
G01X37456Y56073D01*
G01X37485Y56043D01*
G01X37519Y56019D01*
G01X37555Y56002D01*
G01X37595Y55992D01*
G01X37637Y55989D01*
G01X37679Y55992D01*
G01X37719Y56002D01*
G01X37756Y56019D01*
G01X37789Y56043D01*
G01X37819Y56073D01*
G01X37845Y56110D01*
G01X37868Y56154D01*
G01X37887Y56205D01*
G01X37902Y56262D01*
G01X37913Y56326D01*
G01X37920Y56397D01*
G01X37922Y56474D01*
G01X37920Y56551D01*
G01X37913Y56621D01*
G01X37902Y56685D01*
G01X37887Y56742D01*
G01X37868Y56792D01*
G01X37845Y56835D01*
G01X37819Y56871D01*
G01X37789Y56901D01*
G01X37756Y56924D01*
G01X37719Y56941D01*
G01X37679Y56951D01*
G37*

%LPC*%
G36*
G01X37676Y56864D02*
G01X37637Y56870D01*
G01X37598Y56864D01*
G01X37562Y56846D01*
G01X37531Y56816D01*
G01X37504Y56774D01*
G01X37482Y56719D01*
G01X37466Y56651D01*
G01X37455Y56569D01*
G01X37452Y56474D01*
G01X37455Y56378D01*
G01X37466Y56296D01*
G01X37482Y56226D01*
G01X37504Y56170D01*
G01X37531Y56127D01*
G01X37562Y56096D01*
G01X37598Y56079D01*
G01X37637Y56073D01*
G01X37676Y56079D01*
G01X37712Y56097D01*
G01X37743Y56127D01*
G01X37770Y56171D01*
G01X37791Y56226D01*
G01X37807Y56296D01*
G01X37817Y56378D01*
G01X37820Y56474D01*
G01X37817Y56569D01*
G01X37807Y56651D01*
G01X37791Y56719D01*
G01X37770Y56774D01*
G01X37743Y56816D01*
G01X37712Y56846D01*
G01X37676Y56864D01*
G37*

%LPD*%
G36*
G01X37146Y56150D02*
G01X37117Y56156D01*
G01X37086Y56150D01*
G01X37061Y56132D01*
G01X37044Y56106D01*
G01X37038Y56073D01*
G01X37044Y56039D01*
G01X37061Y56013D01*
G01X37086Y55995D01*
G01X37117Y55989D01*
G01X37146Y55995D01*
G01X37171Y56013D01*
G01X37187Y56039D01*
G01X37193Y56073D01*
G01X37187Y56106D01*
G01X37171Y56132D01*
G01X37146Y56150D01*
G37*

%LPD*%
G36*
G01X36106Y56150D02*
G01X36075Y56156D01*
G01X36046Y56150D01*
G01X36021Y56132D01*
G01X36003Y56106D01*
G01X35996Y56073D01*
G01X36003Y56039D01*
G01X36021Y56013D01*
G01X36046Y55995D01*
G01X36075Y55989D01*
G01X36106Y55995D01*
G01X36130Y56013D01*
G01X36148Y56039D01*
G01X36154Y56073D01*
G01X36148Y56106D01*
G01X36130Y56132D01*
G01X36106Y56150D01*
G37*

%LPD*%

%LPD*%
G36*
G01X36713Y55453D02*
G01X36685Y55458D01*
G01X36655Y55453D01*
G01X36633Y55439D01*
G01X36619Y55417D01*
G01X36614Y55389D01*
G01X36619Y55358D01*
G01X36633Y55335D01*
G01X36655Y55321D01*
G01X36685Y55316D01*
G01X36713Y55321D01*
G01X36736Y55335D01*
G01X36750Y55358D01*
G01X36756Y55389D01*
G01X36750Y55417D01*
G01X36736Y55439D01*
G01X36713Y55453D01*
G37*

%LPD*%
G36*
G01X42572Y55491D02*
G01X41889Y55491D01*
G01X41889Y55074D01*
G01X42572Y55074D01*
G01X42572Y55491D01*
G37*

%LPC*%
G36*
G01X42486Y55407D02*
G01X41970Y55407D01*
G01X41970Y55156D01*
G01X42486Y55156D01*
G01X42486Y55407D01*
G37*

%LPD*%
G36*
G01X43419Y54918D02*
G01X43393Y54973D01*
G01X43337Y54955D01*
G01X43361Y54900D01*
G01X43382Y54841D01*
G01X43399Y54783D01*
G01X43411Y54734D01*
G01X43472Y54754D01*
G01X43460Y54804D01*
G01X43442Y54859D01*
G01X43419Y54918D01*
G37*

%LPD*%
G36*
G01X43063Y54963D02*
G01X42997Y54973D01*
G01X42982Y54895D01*
G01X42963Y54820D01*
G01X42940Y54750D01*
G01X42910Y54688D01*
G01X42924Y54681D01*
G01X42956Y54666D01*
G01X42969Y54660D01*
G01X42998Y54723D01*
G01X43024Y54797D01*
G01X43045Y54879D01*
G01X43063Y54963D01*
G37*

%LPD*%
G36*
G01X44007Y54891D02*
G01X43972Y54968D01*
G01X43911Y54952D01*
G01X43945Y54875D01*
G01X43975Y54792D01*
G01X43999Y54712D01*
G01X44015Y54640D01*
G01X44081Y54660D01*
G01X44064Y54730D01*
G01X44039Y54809D01*
G01X44007Y54891D01*
G37*

%LPD*%
G36*
G01X43619Y54957D02*
G01X43555Y54970D01*
G01X43540Y54887D01*
G01X43519Y54809D01*
G01X43492Y54737D01*
G01X43459Y54676D01*
G01X43472Y54668D01*
G01X43488Y54659D01*
G01X43503Y54649D01*
G01X43515Y54640D01*
G01X43550Y54706D01*
G01X43578Y54783D01*
G01X43601Y54868D01*
G01X43619Y54957D01*
G37*

%LPD*%
G36*
G01X38063Y55182D02*
G01X38013Y55186D01*
G01X37945Y55177D01*
G01X37885Y55151D01*
G01X37830Y55113D01*
G01X37779Y55067D01*
G01X37777Y55067D01*
G01X37767Y55168D01*
G01X37683Y55168D01*
G01X37683Y54483D01*
G01X37785Y54483D01*
G01X37785Y54983D01*
G01X37835Y55032D01*
G01X37883Y55066D01*
G01X37929Y55088D01*
G01X37980Y55095D01*
G01X38042Y55083D01*
G01X38085Y55049D01*
G01X38110Y54989D01*
G01X38117Y54904D01*
G01X38117Y54483D01*
G01X38221Y54483D01*
G01X38221Y54919D01*
G01X38218Y54981D01*
G01X38209Y55035D01*
G01X38193Y55081D01*
G01X38171Y55119D01*
G01X38142Y55148D01*
G01X38106Y55169D01*
G01X38063Y55182D01*
G37*

%LPD*%
G36*
G01X36736Y55168D02*
G01X36634Y55168D01*
G01X36634Y54483D01*
G01X36736Y54483D01*
G01X36736Y55168D01*
G37*

%LPD*%
G36*
G01X34719Y55412D02*
G01X34490Y55412D01*
G01X34490Y54483D01*
G01X34724Y54483D01*
G01X34791Y54486D01*
G01X34853Y54497D01*
G01X34909Y54515D01*
G01X34960Y54539D01*
G01X35004Y54570D01*
G01X35043Y54607D01*
G01X35076Y54651D01*
G01X35104Y54700D01*
G01X35125Y54755D01*
G01X35141Y54815D01*
G01X35150Y54880D01*
G01X35153Y54950D01*
G01X35150Y55020D01*
G01X35141Y55085D01*
G01X35125Y55145D01*
G01X35104Y55199D01*
G01X35076Y55248D01*
G01X35042Y55291D01*
G01X35003Y55327D01*
G01X34958Y55357D01*
G01X34907Y55381D01*
G01X34850Y55398D01*
G01X34787Y55409D01*
G01X34719Y55412D01*
G37*

%LPC*%
G36*
G01X34711Y55326D02*
G01X34597Y55326D01*
G01X34597Y54569D01*
G01X34711Y54569D01*
G01X34765Y54572D01*
G01X34814Y54581D01*
G01X34858Y54595D01*
G01X34898Y54615D01*
G01X34933Y54640D01*
G01X34962Y54671D01*
G01X34987Y54706D01*
G01X35008Y54746D01*
G01X35024Y54791D01*
G01X35035Y54840D01*
G01X35042Y54893D01*
G01X35044Y54950D01*
G01X35042Y55007D01*
G01X35035Y55061D01*
G01X35024Y55109D01*
G01X35008Y55154D01*
G01X34987Y55193D01*
G01X34962Y55227D01*
G01X34933Y55257D01*
G01X34898Y55282D01*
G01X34858Y55300D01*
G01X34814Y55315D01*
G01X34765Y55323D01*
G01X34711Y55326D01*
G37*

%LPD*%
G36*
G01X38836Y55493D02*
G01X38735Y55493D01*
G01X38735Y54483D01*
G01X38816Y54483D01*
G01X38826Y54554D01*
G01X38828Y54554D01*
G01X38876Y54517D01*
G01X38927Y54489D01*
G01X38977Y54471D01*
G01X39027Y54465D01*
G01X39086Y54471D01*
G01X39141Y54490D01*
G01X39192Y54521D01*
G01X39236Y54562D01*
G01X39273Y54616D01*
G01X39302Y54679D01*
G01X39320Y54753D01*
G01X39326Y54836D01*
G01X39322Y54911D01*
G01X39309Y54979D01*
G01X39287Y55039D01*
G01X39257Y55090D01*
G01X39218Y55131D01*
G01X39171Y55161D01*
G01X39116Y55179D01*
G01X39052Y55186D01*
G01X38994Y55178D01*
G01X38937Y55157D01*
G01X38882Y55125D01*
G01X38831Y55087D01*
G01X38836Y55211D01*
G01X38836Y55493D01*
G37*

%LPC*%
G36*
G01X39077Y55095D02*
G01X39029Y55100D01*
G01X38983Y55093D01*
G01X38936Y55074D01*
G01X38886Y55042D01*
G01X38836Y54998D01*
G01X38836Y54627D01*
G01X38884Y54593D01*
G01X38931Y54570D01*
G01X38974Y54558D01*
G01X39011Y54554D01*
G01X39055Y54559D01*
G01X39094Y54573D01*
G01X39130Y54597D01*
G01X39160Y54629D01*
G01X39185Y54669D01*
G01X39204Y54718D01*
G01X39216Y54773D01*
G01X39220Y54836D01*
G01X39217Y54891D01*
G01X39209Y54942D01*
G01X39196Y54987D01*
G01X39176Y55026D01*
G01X39150Y55057D01*
G01X39117Y55080D01*
G01X39077Y55095D01*
G37*

%LPD*%
G36*
G01X36299Y55180D02*
G01X36238Y55186D01*
G01X36139Y55171D01*
G01X36065Y55130D01*
G01X36020Y55068D01*
G01X36004Y54993D01*
G01X36022Y54918D01*
G01X36070Y54864D01*
G01X36135Y54825D01*
G01X36207Y54797D01*
G01X36265Y54774D01*
G01X36316Y54745D01*
G01X36353Y54709D01*
G01X36367Y54660D01*
G01X36359Y54616D01*
G01X36332Y54581D01*
G01X36288Y54557D01*
G01X36225Y54549D01*
G01X36165Y54555D01*
G01X36111Y54571D01*
G01X36063Y54597D01*
G01X36017Y54630D01*
G01X35966Y54559D01*
G01X36019Y54522D01*
G01X36081Y54492D01*
G01X36148Y54472D01*
G01X36220Y54465D01*
G01X36276Y54469D01*
G01X36326Y54481D01*
G01X36368Y54500D01*
G01X36403Y54525D01*
G01X36431Y54555D01*
G01X36451Y54589D01*
G01X36462Y54626D01*
G01X36466Y54665D01*
G01X36447Y54748D01*
G01X36398Y54805D01*
G01X36329Y54845D01*
G01X36253Y54876D01*
G01X36197Y54898D01*
G01X36148Y54922D01*
G01X36115Y54954D01*
G01X36103Y54998D01*
G01X36111Y55039D01*
G01X36136Y55073D01*
G01X36178Y55096D01*
G01X36238Y55105D01*
G01X36282Y55100D01*
G01X36322Y55087D01*
G01X36359Y55066D01*
G01X36395Y55041D01*
G01X36446Y55110D01*
G01X36404Y55140D01*
G01X36354Y55164D01*
G01X36299Y55180D01*
G37*

%LPD*%
G36*
G01X35663Y55180D02*
G01X35603Y55186D01*
G01X35544Y55179D01*
G01X35488Y55161D01*
G01X35436Y55130D01*
G01X35390Y55089D01*
G01X35351Y55037D01*
G01X35321Y54975D01*
G01X35302Y54904D01*
G01X35295Y54825D01*
G01X35302Y54745D01*
G01X35321Y54674D01*
G01X35351Y54612D01*
G01X35390Y54560D01*
G01X35438Y54519D01*
G01X35493Y54489D01*
G01X35555Y54471D01*
G01X35620Y54465D01*
G01X35688Y54470D01*
G01X35747Y54486D01*
G01X35799Y54508D01*
G01X35847Y54536D01*
G01X35806Y54604D01*
G01X35767Y54581D01*
G01X35725Y54563D01*
G01X35681Y54552D01*
G01X35633Y54549D01*
G01X35584Y54553D01*
G01X35540Y54567D01*
G01X35500Y54589D01*
G01X35467Y54618D01*
G01X35440Y54655D01*
G01X35419Y54698D01*
G01X35406Y54748D01*
G01X35399Y54803D01*
G01X35867Y54803D01*
G01X35869Y54815D01*
G01X35870Y54830D01*
G01X35872Y54866D01*
G01X35867Y54936D01*
G01X35854Y54999D01*
G01X35832Y55053D01*
G01X35801Y55099D01*
G01X35763Y55136D01*
G01X35716Y55164D01*
G01X35663Y55180D01*
G37*

%LPC*%
G36*
G01X35678Y55088D02*
G01X35603Y55102D01*
G01X35530Y55087D01*
G01X35468Y55043D01*
G01X35421Y54973D01*
G01X35397Y54879D01*
G01X35780Y54879D01*
G01X35768Y54976D01*
G01X35734Y55046D01*
G01X35678Y55088D01*
G37*

%LPD*%
G36*
G01X41214Y55529D02*
G01X41127Y55529D01*
G01X41127Y55140D01*
G01X40871Y55140D01*
G01X40871Y55062D01*
G01X41127Y55062D01*
G01X41127Y54523D01*
G01X40800Y54523D01*
G01X40800Y54442D01*
G01X41536Y54442D01*
G01X41536Y54523D01*
G01X41214Y54523D01*
G01X41214Y55062D01*
G01X41490Y55062D01*
G01X41490Y55140D01*
G01X41214Y55140D01*
G01X41214Y55529D01*
G37*

%LPD*%
G36*
G01X40683Y55544D02*
G01X40601Y55544D01*
G01X40601Y55298D01*
G01X40393Y55298D01*
G01X40393Y55217D01*
G01X40591Y55217D01*
G01X40572Y55148D01*
G01X40549Y55079D01*
G01X40523Y55011D01*
G01X40494Y54945D01*
G01X40464Y54882D01*
G01X40432Y54825D01*
G01X40399Y54773D01*
G01X40365Y54729D01*
G01X40377Y54712D01*
G01X40390Y54692D01*
G01X40402Y54671D01*
G01X40411Y54653D01*
G01X40437Y54689D01*
G01X40464Y54730D01*
G01X40489Y54775D01*
G01X40514Y54824D01*
G01X40537Y54876D01*
G01X40560Y54930D01*
G01X40582Y54985D01*
G01X40601Y55041D01*
G01X40601Y54389D01*
G01X40683Y54389D01*
G01X40683Y55051D01*
G01X40710Y55002D01*
G01X40737Y54951D01*
G01X40759Y54905D01*
G01X40777Y54869D01*
G01X40830Y54932D01*
G01X40804Y54975D01*
G01X40764Y55041D01*
G01X40720Y55111D01*
G01X40683Y55168D01*
G01X40683Y55217D01*
G01X40858Y55217D01*
G01X40858Y55298D01*
G01X40683Y55298D01*
G01X40683Y55544D01*
G37*

%LPD*%
G36*
G01X43809Y55542D02*
G01X43731Y55542D01*
G01X43731Y55379D01*
G01X43533Y55379D01*
G01X43533Y55303D01*
G01X43731Y55303D01*
G01X43731Y55148D01*
G01X43492Y55148D01*
G01X43492Y55072D01*
G01X43662Y55072D01*
G01X43660Y54999D01*
G01X43657Y54930D01*
G01X43652Y54864D01*
G01X43646Y54802D01*
G01X43637Y54744D01*
G01X43626Y54689D01*
G01X43611Y54638D01*
G01X43593Y54592D01*
G01X43571Y54549D01*
G01X43545Y54509D01*
G01X43513Y54473D01*
G01X43477Y54442D01*
G01X43491Y54432D01*
G01X43505Y54417D01*
G01X43518Y54402D01*
G01X43527Y54386D01*
G01X43567Y54421D01*
G01X43601Y54460D01*
G01X43630Y54503D01*
G01X43654Y54550D01*
G01X43674Y54601D01*
G01X43690Y54656D01*
G01X43702Y54716D01*
G01X43712Y54779D01*
G01X43718Y54846D01*
G01X43724Y54917D01*
G01X43727Y54993D01*
G01X43728Y55072D01*
G01X43820Y55072D01*
G01X43820Y54475D01*
G01X43819Y54465D01*
G01X43815Y54459D01*
G01X43809Y54456D01*
G01X43799Y54455D01*
G01X43685Y54455D01*
G01X43692Y54438D01*
G01X43698Y54420D01*
G01X43702Y54402D01*
G01X43705Y54386D01*
G01X43757Y54386D01*
G01X43798Y54388D01*
G01X43831Y54392D01*
G01X43855Y54399D01*
G01X43872Y54410D01*
G01X43884Y54426D01*
G01X43889Y54446D01*
G01X43891Y54475D01*
G01X43891Y55072D01*
G01X44058Y55072D01*
G01X44058Y55148D01*
G01X43809Y55148D01*
G01X43809Y55303D01*
G01X44013Y55303D01*
G01X44013Y55379D01*
G01X43809Y55379D01*
G01X43809Y55542D01*
G37*

%LPD*%
G36*
G01X42760Y54935D02*
G01X42291Y54935D01*
G01X42291Y54386D01*
G01X42372Y54386D01*
G01X42372Y54455D01*
G01X42677Y54455D01*
G01X42677Y54396D01*
G01X42760Y54396D01*
G01X42760Y54935D01*
G37*

%LPC*%
G36*
G01X42677Y54856D02*
G01X42372Y54856D01*
G01X42372Y54538D01*
G01X42677Y54538D01*
G01X42677Y54856D01*
G37*

%LPD*%
G36*
G01X42146Y54935D02*
G01X41704Y54935D01*
G01X41704Y54386D01*
G01X41783Y54386D01*
G01X41783Y54455D01*
G01X42062Y54455D01*
G01X42062Y54399D01*
G01X42146Y54399D01*
G01X42146Y54935D01*
G37*

%LPC*%
G36*
G01X42062Y54856D02*
G01X41783Y54856D01*
G01X41783Y54538D01*
G01X42062Y54538D01*
G01X42062Y54856D01*
G37*

%LPD*%
G36*
G01X43243Y55542D02*
G01X43164Y55542D01*
G01X43164Y55379D01*
G01X42981Y55379D01*
G01X42981Y55303D01*
G01X43164Y55303D01*
G01X43164Y55148D01*
G01X42933Y55148D01*
G01X42933Y55072D01*
G01X43103Y55072D01*
G01X43101Y54999D01*
G01X43098Y54929D01*
G01X43093Y54864D01*
G01X43087Y54801D01*
G01X43078Y54743D01*
G01X43067Y54688D01*
G01X43054Y54637D01*
G01X43036Y54590D01*
G01X43014Y54547D01*
G01X42988Y54507D01*
G01X42959Y54471D01*
G01X42923Y54439D01*
G01X42937Y54428D01*
G01X42965Y54398D01*
G01X42976Y54383D01*
G01X43014Y54419D01*
G01X43047Y54459D01*
G01X43074Y54502D01*
G01X43098Y54550D01*
G01X43117Y54601D01*
G01X43132Y54657D01*
G01X43144Y54717D01*
G01X43154Y54780D01*
G01X43161Y54847D01*
G01X43166Y54918D01*
G01X43169Y54993D01*
G01X43172Y55072D01*
G01X43253Y55072D01*
G01X43253Y54485D01*
G01X43252Y54475D01*
G01X43249Y54469D01*
G01X43242Y54466D01*
G01X43233Y54465D01*
G01X43121Y54465D01*
G01X43129Y54448D01*
G01X43141Y54412D01*
G01X43144Y54396D01*
G01X43193Y54396D01*
G01X43232Y54398D01*
G01X43264Y54402D01*
G01X43289Y54409D01*
G01X43305Y54420D01*
G01X43316Y54435D01*
G01X43322Y54456D01*
G01X43324Y54483D01*
G01X43324Y55072D01*
G01X43454Y55072D01*
G01X43454Y55148D01*
G01X43243Y55148D01*
G01X43243Y55303D01*
G01X43418Y55303D01*
G01X43418Y55379D01*
G01X43243Y55379D01*
G01X43243Y55542D01*
G37*

%LPD*%
G36*
G01X39512Y55168D02*
G01X39405Y55168D01*
G01X39682Y54480D01*
G01X39667Y54427D01*
G01X39640Y54365D01*
G01X39605Y54314D01*
G01X39561Y54281D01*
G01X39507Y54269D01*
G01X39491Y54270D01*
G01X39477Y54272D01*
G01X39464Y54276D01*
G01X39453Y54279D01*
G01X39430Y54195D01*
G01X39448Y54190D01*
G01X39467Y54186D01*
G01X39487Y54184D01*
G01X39509Y54183D01*
G01X39557Y54188D01*
G01X39599Y54202D01*
G01X39636Y54223D01*
G01X39668Y54252D01*
G01X39697Y54287D01*
G01X39721Y54328D01*
G01X39742Y54372D01*
G01X39761Y54419D01*
G01X40022Y55168D01*
G01X39921Y55168D01*
G01X39791Y54777D01*
G01X39777Y54730D01*
G01X39748Y54630D01*
G01X39733Y54582D01*
G01X39728Y54582D01*
G01X39710Y54630D01*
G01X39693Y54680D01*
G01X39675Y54730D01*
G01X39659Y54777D01*
G01X39512Y55168D01*
G37*

%LPD*%
G36*
G01X37229Y55185D02*
G01X37200Y55186D01*
G01X37150Y55182D01*
G01X37103Y55169D01*
G01X37060Y55148D01*
G01X37022Y55120D01*
G01X36991Y55084D01*
G01X36967Y55042D01*
G01X36951Y54995D01*
G01X36946Y54942D01*
G01X36954Y54884D01*
G01X36975Y54833D01*
G01X37003Y54789D01*
G01X37035Y54757D01*
G01X37035Y54752D01*
G01X37009Y54729D01*
G01X36985Y54699D01*
G01X36966Y54664D01*
G01X36959Y54625D01*
G01X36964Y54587D01*
G01X36977Y54555D01*
G01X36998Y54530D01*
G01X37023Y54510D01*
G01X37023Y54505D01*
G01X36980Y54472D01*
G01X36948Y54433D01*
G01X36928Y54392D01*
G01X36921Y54348D01*
G01X36926Y54306D01*
G01X36941Y54270D01*
G01X36966Y54238D01*
G01X36999Y54211D01*
G01X37040Y54190D01*
G01X37088Y54175D01*
G01X37142Y54166D01*
G01X37203Y54162D01*
G01X37278Y54168D01*
G01X37344Y54182D01*
G01X37403Y54205D01*
G01X37452Y54234D01*
G01X37492Y54269D01*
G01X37521Y54309D01*
G01X37540Y54353D01*
G01X37546Y54399D01*
G01X37531Y54471D01*
G01X37487Y54522D01*
G01X37413Y54552D01*
G01X37310Y54561D01*
G01X37172Y54561D01*
G01X37113Y54567D01*
G01X37076Y54583D01*
G01X37056Y54607D01*
G01X37050Y54637D01*
G01X37054Y54666D01*
G01X37064Y54689D01*
G01X37078Y54708D01*
G01X37096Y54724D01*
G01X37121Y54714D01*
G01X37148Y54707D01*
G01X37174Y54702D01*
G01X37200Y54701D01*
G01X37251Y54705D01*
G01X37298Y54718D01*
G01X37341Y54738D01*
G01X37377Y54765D01*
G01X37407Y54799D01*
G01X37430Y54840D01*
G01X37444Y54887D01*
G01X37449Y54940D01*
G01X37445Y54985D01*
G01X37432Y55026D01*
G01X37413Y55061D01*
G01X37388Y55090D01*
G01X37533Y55090D01*
G01X37533Y55168D01*
G01X37297Y55168D01*
G01X37278Y55175D01*
G01X37255Y55181D01*
G01X37229Y55185D01*
G37*

%LPC*%
G36*
G01X37110Y54480D02*
G01X37086Y54485D01*
G01X37053Y54456D01*
G01X37030Y54425D01*
G01X37017Y54394D01*
G01X37012Y54363D01*
G01X37026Y54310D01*
G01X37067Y54270D01*
G01X37131Y54245D01*
G01X37218Y54236D01*
G01X37311Y54249D01*
G01X37383Y54282D01*
G01X37428Y54330D01*
G01X37444Y54383D01*
G01X37435Y54426D01*
G01X37407Y54454D01*
G01X37362Y54470D01*
G01X37299Y54475D01*
G01X37156Y54475D01*
G01X37134Y54477D01*
G01X37110Y54480D01*
G37*
G36*
G01X37260Y55098D02*
G01X37200Y55110D01*
G01X37141Y55098D01*
G01X37093Y55065D01*
G01X37060Y55012D01*
G01X37048Y54942D01*
G01X37060Y54872D01*
G01X37094Y54818D01*
G01X37142Y54784D01*
G01X37200Y54772D01*
G01X37260Y54784D01*
G01X37309Y54818D01*
G01X37343Y54872D01*
G01X37355Y54942D01*
G01X37343Y55012D01*
G01X37309Y55065D01*
G01X37260Y55098D01*
G37*

%LPD*%
G54D25*
G01X28011Y14904D02*
G01X28011Y14140D01*
G01X28011Y14904D02*
G01X28338Y14904D01*
G01X28448Y14869D01*
G01X28483Y14831D01*
G01X28519Y14759D01*
G01X28519Y14686D01*
G01X28483Y14612D01*
G01X28448Y14577D01*
G01X28338Y14541D01*
G01X28011Y14541D02*
G01X28338Y14541D01*
G01X28448Y14503D01*
G01X28483Y14467D01*
G01X28519Y14394D01*
G01X28519Y14284D01*
G01X28483Y14213D01*
G01X28448Y14175D01*
G01X28338Y14140D01*
G01X28011Y14140D01*
G01X28760Y14904D02*
G01X28760Y14140D01*
G01X28760Y14904D02*
G01X29232Y14904D01*
G01X28760Y14541D02*
G01X29049Y14541D01*
G01X28760Y14140D02*
G01X29232Y14140D01*
G01X29474Y14904D02*
G01X29474Y14140D01*
G01X29474Y14904D02*
G01X29946Y14904D01*
G01X29474Y14541D02*
G01X29763Y14541D01*
G01X29474Y14140D02*
G01X29946Y14140D01*
G01X30840Y15049D02*
G01X30185Y13886D01*
G01X31079Y14904D02*
G01X31079Y14140D01*
G01X31079Y14140D02*
G01X31516Y14140D01*
G01X31757Y14904D02*
G01X31757Y14140D01*
G01X31757Y14904D02*
G01X32230Y14904D01*
G01X31757Y14541D02*
G01X32047Y14541D01*
G01X31757Y14140D02*
G01X32230Y14140D01*
G01X32468Y14904D02*
G01X32468Y14140D01*
G01X32468Y14904D02*
G01X32722Y14904D01*
G01X32832Y14869D01*
G01X32905Y14795D01*
G01X32941Y14721D01*
G01X32979Y14612D01*
G01X32979Y14432D01*
G01X32941Y14323D01*
G01X32905Y14249D01*
G01X32832Y14175D01*
G01X32722Y14140D01*
G01X32468Y14140D01*
G01X33218Y14467D02*
G01X33873Y14467D01*
G01X34439Y14795D02*
G01X34439Y14140D01*
G01X34112Y14467D02*
G01X34767Y14467D01*
G01X35006Y14467D02*
G01X35661Y14467D01*
G01X36230Y14795D02*
G01X36230Y14140D01*
G01X35902Y14467D02*
G01X36555Y14467D01*
G01X38171Y15405D02*
G01X38171Y13688D01*
G01X38171Y15405D02*
G01X38907Y15405D01*
G01X39154Y15323D01*
G01X39235Y15242D01*
G01X39316Y15077D01*
G01X39316Y14833D01*
G01X39235Y14668D01*
G01X39154Y14587D01*
G01X38907Y14505D01*
G01X38171Y14505D01*
G01X39857Y15405D02*
G01X40266Y13688D01*
G01X40675Y15405D02*
G01X40266Y13688D01*
G01X40675Y15405D02*
G01X41084Y13688D01*
G01X41493Y15405D02*
G01X41084Y13688D01*

%LPD*%
G36*
G01X60142Y21132D02*
G01X60093Y21132D01*
G01X60071Y21120D01*
G01X60044Y21109D01*
G01X60015Y21101D01*
G01X59982Y21094D01*
G01X59982Y21054D01*
G01X60078Y21054D01*
G01X60078Y20624D01*
G01X59954Y20624D01*
G01X59954Y20574D01*
G01X60253Y20574D01*
G01X60253Y20624D01*
G01X60142Y20624D01*
G01X60142Y21132D01*
G37*

%LPD*%
G36*
G01X59306Y21132D02*
G01X59242Y21132D01*
G01X59362Y20574D01*
G01X59436Y20574D01*
G01X59524Y20921D01*
G01X59530Y20953D01*
G01X59545Y21016D01*
G01X59552Y21048D01*
G01X59555Y21048D01*
G01X59562Y21016D01*
G01X59569Y20985D01*
G01X59583Y20921D01*
G01X59672Y20574D01*
G01X59745Y20574D01*
G01X59865Y21132D01*
G01X59804Y21132D01*
G01X59743Y20820D01*
G01X59734Y20776D01*
G01X59717Y20685D01*
G01X59710Y20640D01*
G01X59705Y20640D01*
G01X59695Y20685D01*
G01X59674Y20776D01*
G01X59664Y20820D01*
G01X59585Y21132D01*
G01X59524Y21132D01*
G01X59446Y20820D01*
G01X59436Y20776D01*
G01X59415Y20685D01*
G01X59405Y20640D01*
G01X59402Y20640D01*
G01X59386Y20730D01*
G01X59378Y20776D01*
G01X59369Y20820D01*
G01X59306Y21132D01*
G37*

%LPD*%
G36*
G01X58976Y21132D02*
G01X58823Y21132D01*
G01X58823Y20574D01*
G01X58887Y20574D01*
G01X58887Y20800D01*
G01X58981Y20800D01*
G01X59064Y20810D01*
G01X59128Y20841D01*
G01X59169Y20894D01*
G01X59184Y20970D01*
G01X59169Y21045D01*
G01X59128Y21096D01*
G01X59062Y21124D01*
G01X58976Y21132D01*
G37*

%LPC*%
G36*
G01X58968Y21079D02*
G01X58887Y21079D01*
G01X58887Y20850D01*
G01X58971Y20850D01*
G01X59037Y20857D01*
G01X59083Y20879D01*
G01X59111Y20916D01*
G01X59121Y20970D01*
G01X59111Y21022D01*
G01X59082Y21056D01*
G01X59035Y21074D01*
G01X58968Y21079D01*
G37*

%LPD*%

%LPD*%
G36*
G01X43731Y53751D02*
G01X43583Y53751D01*
G01X43583Y52451D01*
G01X44305Y52451D01*
G01X44305Y52575D01*
G01X43731Y52575D01*
G01X43731Y53751D01*
G37*

%LPD*%
G36*
G01X40777Y53751D02*
G01X40629Y53751D01*
G01X40629Y52451D01*
G01X41353Y52451D01*
G01X41353Y52575D01*
G01X40777Y52575D01*
G01X40777Y53751D01*
G37*

%LPD*%
G36*
G01X37823Y53751D02*
G01X37675Y53751D01*
G01X37675Y52451D01*
G01X38399Y52451D01*
G01X38399Y52575D01*
G01X37823Y52575D01*
G01X37823Y53751D01*
G37*

%LPD*%
G36*
G01X34871Y53751D02*
G01X34721Y53751D01*
G01X34721Y52451D01*
G01X35445Y52451D01*
G01X35445Y52575D01*
G01X34871Y52575D01*
G01X34871Y53751D01*
G37*

%LPD*%
G36*
G01X45038Y53773D02*
G01X44980Y53776D01*
G01X44919Y53773D01*
G01X44861Y53765D01*
G01X44805Y53750D01*
G01X44752Y53730D01*
G01X44701Y53704D01*
G01X44654Y53673D01*
G01X44611Y53637D01*
G01X44571Y53596D01*
G01X44535Y53550D01*
G01X44503Y53499D01*
G01X44475Y53443D01*
G01X44452Y53383D01*
G01X44433Y53319D01*
G01X44420Y53250D01*
G01X44411Y53177D01*
G01X44409Y53101D01*
G01X44411Y53024D01*
G01X44420Y52951D01*
G01X44433Y52882D01*
G01X44451Y52818D01*
G01X44474Y52758D01*
G01X44501Y52702D01*
G01X44533Y52652D01*
G01X44568Y52606D01*
G01X44608Y52565D01*
G01X44651Y52529D01*
G01X44697Y52499D01*
G01X44746Y52473D01*
G01X44798Y52454D01*
G01X44853Y52439D01*
G01X44911Y52431D01*
G01X44970Y52428D01*
G01X45031Y52431D01*
G01X45089Y52440D01*
G01X45142Y52456D01*
G01X45193Y52476D01*
G01X45240Y52503D01*
G01X45285Y52535D01*
G01X45327Y52571D01*
G01X45366Y52613D01*
G01X45283Y52707D01*
G01X45217Y52643D01*
G01X45145Y52596D01*
G01X45065Y52567D01*
G01X44975Y52557D01*
G01X44914Y52562D01*
G01X44856Y52574D01*
G01X44804Y52595D01*
G01X44755Y52624D01*
G01X44712Y52661D01*
G01X44673Y52705D01*
G01X44640Y52756D01*
G01X44612Y52813D01*
G01X44590Y52878D01*
G01X44574Y52948D01*
G01X44564Y53024D01*
G01X44561Y53106D01*
G01X44565Y53186D01*
G01X44574Y53261D01*
G01X44591Y53330D01*
G01X44614Y53393D01*
G01X44642Y53450D01*
G01X44676Y53500D01*
G01X44715Y53543D01*
G01X44759Y53579D01*
G01X44808Y53607D01*
G01X44861Y53628D01*
G01X44919Y53640D01*
G01X44980Y53644D01*
G01X45062Y53636D01*
G01X45133Y53611D01*
G01X45197Y53572D01*
G01X45252Y53520D01*
G01X45333Y53616D01*
G01X45303Y53646D01*
G01X45269Y53676D01*
G01X45231Y53703D01*
G01X45188Y53727D01*
G01X45142Y53747D01*
G01X45092Y53763D01*
G01X45038Y53773D01*
G37*

%LPD*%
G36*
G01X43225Y53751D02*
G01X43078Y53751D01*
G01X43078Y52839D01*
G01X43074Y52770D01*
G01X43065Y52711D01*
G01X43048Y52662D01*
G01X43024Y52623D01*
G01X42994Y52593D01*
G01X42957Y52573D01*
G01X42913Y52561D01*
G01X42862Y52557D01*
G01X42793Y52565D01*
G01X42732Y52591D01*
G01X42678Y52636D01*
G01X42631Y52705D01*
G01X42524Y52631D01*
G01X42554Y52584D01*
G01X42588Y52542D01*
G01X42625Y52507D01*
G01X42667Y52479D01*
G01X42713Y52457D01*
G01X42763Y52440D01*
G01X42817Y52431D01*
G01X42875Y52428D01*
G01X42935Y52431D01*
G01X42988Y52442D01*
G01X43036Y52459D01*
G01X43077Y52482D01*
G01X43113Y52510D01*
G01X43144Y52544D01*
G01X43170Y52583D01*
G01X43190Y52625D01*
G01X43206Y52671D01*
G01X43217Y52720D01*
G01X43223Y52772D01*
G01X43225Y52826D01*
G01X43225Y53751D01*
G37*

%LPD*%
G36*
G01X42084Y53773D02*
G01X42026Y53776D01*
G01X41966Y53773D01*
G01X41907Y53765D01*
G01X41852Y53750D01*
G01X41799Y53730D01*
G01X41748Y53704D01*
G01X41702Y53673D01*
G01X41658Y53637D01*
G01X41618Y53596D01*
G01X41581Y53550D01*
G01X41549Y53499D01*
G01X41521Y53443D01*
G01X41498Y53383D01*
G01X41480Y53319D01*
G01X41466Y53250D01*
G01X41458Y53177D01*
G01X41455Y53101D01*
G01X41457Y53024D01*
G01X41466Y52951D01*
G01X41479Y52882D01*
G01X41497Y52818D01*
G01X41520Y52758D01*
G01X41547Y52702D01*
G01X41579Y52652D01*
G01X41614Y52606D01*
G01X41654Y52565D01*
G01X41697Y52529D01*
G01X41743Y52499D01*
G01X41792Y52473D01*
G01X41844Y52454D01*
G01X41899Y52439D01*
G01X41957Y52431D01*
G01X42016Y52428D01*
G01X42077Y52431D01*
G01X42135Y52440D01*
G01X42188Y52456D01*
G01X42239Y52476D01*
G01X42286Y52503D01*
G01X42331Y52535D01*
G01X42373Y52571D01*
G01X42412Y52613D01*
G01X42331Y52707D01*
G01X42264Y52643D01*
G01X42192Y52596D01*
G01X42112Y52567D01*
G01X42024Y52557D01*
G01X41962Y52562D01*
G01X41904Y52574D01*
G01X41851Y52595D01*
G01X41802Y52624D01*
G01X41758Y52661D01*
G01X41720Y52705D01*
G01X41686Y52756D01*
G01X41658Y52813D01*
G01X41636Y52878D01*
G01X41620Y52948D01*
G01X41610Y53024D01*
G01X41607Y53106D01*
G01X41611Y53186D01*
G01X41621Y53261D01*
G01X41637Y53330D01*
G01X41660Y53393D01*
G01X41689Y53450D01*
G01X41723Y53500D01*
G01X41762Y53543D01*
G01X41807Y53579D01*
G01X41856Y53607D01*
G01X41910Y53628D01*
G01X41967Y53640D01*
G01X42029Y53644D01*
G01X42110Y53636D01*
G01X42182Y53611D01*
G01X42244Y53572D01*
G01X42298Y53520D01*
G01X42379Y53616D01*
G01X42349Y53646D01*
G01X42315Y53676D01*
G01X42277Y53703D01*
G01X42234Y53727D01*
G01X42188Y53747D01*
G01X42138Y53763D01*
G01X42084Y53773D01*
G37*

%LPD*%
G36*
G01X40271Y53751D02*
G01X40124Y53751D01*
G01X40124Y52839D01*
G01X40120Y52770D01*
G01X40111Y52711D01*
G01X40094Y52662D01*
G01X40070Y52623D01*
G01X40040Y52593D01*
G01X40003Y52573D01*
G01X39959Y52561D01*
G01X39908Y52557D01*
G01X39839Y52565D01*
G01X39778Y52591D01*
G01X39724Y52636D01*
G01X39677Y52705D01*
G01X39570Y52631D01*
G01X39601Y52584D01*
G01X39635Y52542D01*
G01X39672Y52507D01*
G01X39714Y52479D01*
G01X39760Y52457D01*
G01X39809Y52440D01*
G01X39863Y52431D01*
G01X39921Y52428D01*
G01X39981Y52431D01*
G01X40034Y52442D01*
G01X40082Y52459D01*
G01X40123Y52482D01*
G01X40159Y52510D01*
G01X40190Y52544D01*
G01X40216Y52583D01*
G01X40236Y52625D01*
G01X40252Y52671D01*
G01X40263Y52720D01*
G01X40269Y52772D01*
G01X40271Y52826D01*
G01X40271Y53751D01*
G37*

%LPD*%
G36*
G01X39130Y53773D02*
G01X39072Y53776D01*
G01X39012Y53773D01*
G01X38954Y53765D01*
G01X38898Y53750D01*
G01X38845Y53730D01*
G01X38795Y53704D01*
G01X38748Y53673D01*
G01X38705Y53637D01*
G01X38665Y53596D01*
G01X38629Y53550D01*
G01X38597Y53499D01*
G01X38569Y53443D01*
G01X38546Y53383D01*
G01X38528Y53319D01*
G01X38515Y53250D01*
G01X38506Y53177D01*
G01X38503Y53101D01*
G01X38506Y53024D01*
G01X38514Y52951D01*
G01X38527Y52882D01*
G01X38546Y52818D01*
G01X38568Y52758D01*
G01X38595Y52702D01*
G01X38626Y52652D01*
G01X38662Y52606D01*
G01X38701Y52565D01*
G01X38744Y52529D01*
G01X38789Y52499D01*
G01X38839Y52473D01*
G01X38891Y52454D01*
G01X38945Y52439D01*
G01X39003Y52431D01*
G01X39062Y52428D01*
G01X39124Y52431D01*
G01X39182Y52440D01*
G01X39235Y52456D01*
G01X39286Y52476D01*
G01X39333Y52503D01*
G01X39378Y52535D01*
G01X39419Y52571D01*
G01X39458Y52613D01*
G01X39377Y52707D01*
G01X39311Y52643D01*
G01X39239Y52596D01*
G01X39159Y52567D01*
G01X39070Y52557D01*
G01X39008Y52562D01*
G01X38950Y52574D01*
G01X38897Y52595D01*
G01X38848Y52624D01*
G01X38804Y52661D01*
G01X38765Y52705D01*
G01X38732Y52756D01*
G01X38704Y52813D01*
G01X38682Y52878D01*
G01X38666Y52948D01*
G01X38656Y53024D01*
G01X38653Y53106D01*
G01X38657Y53186D01*
G01X38667Y53261D01*
G01X38683Y53330D01*
G01X38706Y53393D01*
G01X38735Y53450D01*
G01X38769Y53500D01*
G01X38808Y53543D01*
G01X38853Y53579D01*
G01X38902Y53607D01*
G01X38955Y53628D01*
G01X39013Y53640D01*
G01X39075Y53644D01*
G01X39156Y53636D01*
G01X39228Y53611D01*
G01X39290Y53572D01*
G01X39344Y53520D01*
G01X39428Y53616D01*
G01X39397Y53646D01*
G01X39363Y53676D01*
G01X39324Y53703D01*
G01X39282Y53727D01*
G01X39235Y53747D01*
G01X39185Y53763D01*
G01X39130Y53773D01*
G37*

%LPD*%
G36*
G01X37317Y53751D02*
G01X37170Y53751D01*
G01X37170Y52839D01*
G01X37166Y52770D01*
G01X37157Y52711D01*
G01X37140Y52662D01*
G01X37117Y52623D01*
G01X37087Y52593D01*
G01X37050Y52573D01*
G01X37006Y52561D01*
G01X36957Y52557D01*
G01X36887Y52565D01*
G01X36826Y52591D01*
G01X36772Y52636D01*
G01X36725Y52705D01*
G01X36619Y52631D01*
G01X36648Y52584D01*
G01X36682Y52542D01*
G01X36720Y52507D01*
G01X36761Y52479D01*
G01X36807Y52457D01*
G01X36857Y52440D01*
G01X36911Y52431D01*
G01X36969Y52428D01*
G01X37028Y52431D01*
G01X37081Y52442D01*
G01X37129Y52459D01*
G01X37170Y52482D01*
G01X37206Y52510D01*
G01X37236Y52544D01*
G01X37262Y52583D01*
G01X37282Y52625D01*
G01X37298Y52671D01*
G01X37309Y52720D01*
G01X37315Y52772D01*
G01X37317Y52826D01*
G01X37317Y53751D01*
G37*

%LPD*%
G36*
G01X36178Y53773D02*
G01X36121Y53776D01*
G01X36060Y53773D01*
G01X36001Y53765D01*
G01X35946Y53750D01*
G01X35892Y53730D01*
G01X35842Y53704D01*
G01X35795Y53673D01*
G01X35751Y53637D01*
G01X35711Y53596D01*
G01X35675Y53550D01*
G01X35643Y53499D01*
G01X35615Y53443D01*
G01X35592Y53383D01*
G01X35574Y53319D01*
G01X35561Y53250D01*
G01X35552Y53177D01*
G01X35549Y53101D01*
G01X35552Y53024D01*
G01X35560Y52951D01*
G01X35574Y52882D01*
G01X35592Y52818D01*
G01X35614Y52758D01*
G01X35642Y52702D01*
G01X35673Y52652D01*
G01X35709Y52606D01*
G01X35748Y52565D01*
G01X35791Y52529D01*
G01X35837Y52499D01*
G01X35886Y52473D01*
G01X35938Y52454D01*
G01X35992Y52439D01*
G01X36049Y52431D01*
G01X36108Y52428D01*
G01X36170Y52431D01*
G01X36228Y52440D01*
G01X36282Y52456D01*
G01X36333Y52476D01*
G01X36381Y52503D01*
G01X36426Y52535D01*
G01X36468Y52571D01*
G01X36507Y52613D01*
G01X36423Y52707D01*
G01X36358Y52643D01*
G01X36285Y52596D01*
G01X36206Y52567D01*
G01X36116Y52557D01*
G01X36054Y52562D01*
G01X35996Y52574D01*
G01X35943Y52595D01*
G01X35894Y52624D01*
G01X35850Y52661D01*
G01X35811Y52705D01*
G01X35778Y52756D01*
G01X35750Y52813D01*
G01X35728Y52878D01*
G01X35712Y52948D01*
G01X35702Y53024D01*
G01X35699Y53106D01*
G01X35703Y53186D01*
G01X35713Y53261D01*
G01X35729Y53330D01*
G01X35752Y53393D01*
G01X35780Y53450D01*
G01X35815Y53500D01*
G01X35854Y53543D01*
G01X35899Y53579D01*
G01X35948Y53607D01*
G01X36001Y53628D01*
G01X36059Y53640D01*
G01X36121Y53644D01*
G01X36202Y53636D01*
G01X36274Y53611D01*
G01X36337Y53572D01*
G01X36393Y53520D01*
G01X36474Y53616D01*
G01X36444Y53646D01*
G01X36410Y53676D01*
G01X36371Y53703D01*
G01X36329Y53727D01*
G01X36282Y53747D01*
G01X36232Y53763D01*
G01X36178Y53773D01*
G37*

%LPD*%
G36*
G01X34366Y53751D02*
G01X34218Y53751D01*
G01X34218Y52839D01*
G01X34215Y52770D01*
G01X34205Y52711D01*
G01X34188Y52662D01*
G01X34165Y52623D01*
G01X34135Y52593D01*
G01X34097Y52573D01*
G01X34053Y52561D01*
G01X34002Y52557D01*
G01X33933Y52565D01*
G01X33872Y52591D01*
G01X33818Y52636D01*
G01X33771Y52705D01*
G01X33665Y52631D01*
G01X33694Y52584D01*
G01X33728Y52542D01*
G01X33766Y52507D01*
G01X33807Y52479D01*
G01X33853Y52457D01*
G01X33903Y52440D01*
G01X33957Y52431D01*
G01X34015Y52428D01*
G01X34075Y52431D01*
G01X34128Y52442D01*
G01X34176Y52459D01*
G01X34218Y52482D01*
G01X34254Y52510D01*
G01X34285Y52544D01*
G01X34310Y52583D01*
G01X34331Y52625D01*
G01X34346Y52671D01*
G01X34357Y52720D01*
G01X34364Y52772D01*
G01X34366Y52826D01*
G01X34366Y53751D01*
G37*

%LPD*%
G54D24*
G75*
G01X36520Y37464D02*
G02X34742Y37464I-889J0D01*
G01*
G75*
G01X34742Y37464D02*
G02X32964Y37464I-889J0D01*
G01*
G75*
G01X32964Y37464D02*
G02X31186Y37464I-889J0D01*
G01*
G75*
G01X52597Y32853D02*
G02X52598Y27854I-7J-2500D01*
G01*
G75*
G01X46097Y27853D02*
G02X46096Y32852I7J2500D01*
G01*
G75*
G01X52547Y32153D02*
G02X52347Y28552I-107J-1800D01*
G01*
G75*
G01X46147Y28553D02*
G02X46147Y32154I0J1800D01*
G01*
G75*
G01X61793Y50927D02*
G02X60523Y50927I-635J0D01*
G01*
G75*
G01X54346Y21082D02*
G03X54346Y21082I-4999J0D01*
G01*
G75*
G01X31694Y45593D02*
G03X31694Y45593I-508J0D01*
G01*
G75*
G01X31821Y49149D02*
G03X31821Y49149I-508J0D01*
G01*
G75*
G01X27884Y45593D02*
G03X27884Y45593I-508J0D01*
G01*
G75*
G01X28011Y49149D02*
G03X28011Y49149I-508J0D01*
G01*
G75*
G01X30424Y47371D02*
G03X30424Y47371I-1143J0D01*
G01*
G75*
G01X30782Y47371D02*
G03X30782Y47371I-1501J0D01*
G01*
G01X27249Y15875D02*
G01X42489Y15875D01*
G01X42489Y13208D01*
G01X27249Y13208D01*
G01X27249Y15875D01*

%LPD*%
G36*
G01X52903Y17526D02*
G01X45791Y17526D01*
G01X46807Y16764D01*
G01X48331Y16256D01*
G01X49855Y16002D01*
G01X50871Y16256D01*
G01X52903Y17526D01*
G37*
M00*
M02*
