G04 Layer: BottomSolderMaskLayer*
G04 EasyEDA v6.4.7, 2021-01-07T14:22:33+08:00*
G04 e544819f4ad94c36a5ee21bd65f75882,119f753a6ce64b8d841f2ad33262ab0c,10*
G04 Gerber Generator version 0.2*
G04 Scale: 100 percent, Rotated: No, Reflected: No *
G04 Dimensions in millimeters *
G04 leading zeros omitted , absolute positions ,3 integer and 3 decimal *
%FSLAX33Y33*%
%MOMM*%
G90*
D02*

%ADD26C,4.703191*%
%ADD27C,2.203196*%
%ADD28C,2.503195*%
%ADD29C,2.003196*%
%ADD30C,1.703197*%
%ADD32C,1.804010*%
%ADD33C,1.803197*%
%ADD34C,1.727200*%
%ADD35C,3.203194*%

%LPD*%
G54D26*
G01X4132Y56261D02*
G01X19632Y56261D01*
G01X49598Y56261D02*
G01X65098Y56261D01*
G54D27*
G01X31059Y17653D03*
G01X28519Y17653D03*
G01X41219Y17653D03*
G01X36139Y17653D03*
G01X38679Y17653D03*
G01X33599Y17653D03*
G54D28*
G01X39980Y37463D03*
G01X33980Y40013D03*
G01X27980Y37463D03*
G01X27980Y25264D03*
G01X39980Y25264D03*
G54D29*
G01X46934Y40218D03*
G01X46934Y35218D03*
G54D30*
G01X51785Y30353D03*
G36*
G01X46057Y29502D02*
G01X46057Y31203D01*
G01X47759Y31203D01*
G01X47759Y29502D01*
G01X46057Y29502D01*
G37*
G54D32*
G01X64968Y48894D03*
G54D33*
G01X57348Y48894D03*
G01X57348Y46354D03*
G01X57348Y43814D03*
G01X57348Y41274D03*
G01X57348Y38734D03*
G01X57348Y36194D03*
G01X57348Y33654D03*
G01X57348Y31114D03*
G01X57348Y28574D03*
G01X57348Y26034D03*
G01X57348Y23494D03*
G01X57348Y20954D03*
G01X57348Y18414D03*
G01X57348Y15874D03*
G01X64968Y15874D03*
G01X64968Y18414D03*
G01X64968Y20954D03*
G01X64968Y23494D03*
G01X64968Y26034D03*
G01X64968Y28574D03*
G01X64968Y31114D03*
G01X64968Y33654D03*
G54D32*
G01X64968Y36194D03*
G54D33*
G01X64968Y38734D03*
G01X64968Y41274D03*
G01X64968Y43814D03*
G01X64968Y46354D03*
G01X49347Y23622D03*
G01X49347Y18542D03*
G54D34*
G01X13406Y46355D03*
G01X15946Y46355D03*
G01X18486Y46355D03*
G01X21026Y46355D03*
G01X13406Y40640D03*
G01X15946Y40640D03*
G01X18486Y40640D03*
G01X21026Y40640D03*
G01X13406Y34925D03*
G01X15946Y34925D03*
G01X18486Y34925D03*
G01X21026Y34925D03*
G01X13406Y29210D03*
G01X15946Y29210D03*
G01X18486Y29210D03*
G01X21026Y29210D03*
G54D29*
G01X51760Y40218D03*
G01X51760Y35218D03*
G54D35*
G01X58659Y9619D03*
G01X54459Y9619D03*
G01X50259Y9619D03*
G01X46059Y9619D03*
G01X41859Y9619D03*
G01X37659Y9619D03*
G01X12459Y5420D03*
G01X16659Y5420D03*
G01X20859Y5420D03*
G01X12459Y9619D03*
G01X16659Y9619D03*
G01X20859Y9619D03*
G01X25059Y9619D03*
G01X29259Y9619D03*
G01X33459Y9619D03*
G01X25059Y5420D03*
G01X29259Y5420D03*
G01X33459Y5420D03*
G01X37659Y5420D03*
G01X41859Y5420D03*
G01X46059Y5420D03*
G01X50259Y5420D03*
G01X54459Y5420D03*
G01X58659Y5420D03*
G54D29*
G01X32532Y45120D03*
G01X32532Y49621D03*
G01X26029Y45120D03*
G01X26029Y49621D03*
G54D34*
G01X13406Y17780D03*
G01X15946Y17780D03*
G01X18486Y17780D03*
G01X21026Y17780D03*
G01X13406Y23495D03*
G01X15946Y23495D03*
G01X18486Y23495D03*
G01X21026Y23495D03*
M00*
M02*
